<?xml version="1.0" standalone="no"?>
<!DOCTYPE svg PUBLIC "-//W3C//DTD SVG 20010904//EN"
 "http://www.w3.org/TR/2001/REC-SVG-20010904/DTD/svg10.dtd">
<svg version="1.0" xmlns="http://www.w3.org/2000/svg"
 width="1000.000000pt" height="1000.000000pt" viewBox="0 0 1000.000000 1000.000000"
 preserveAspectRatio="xMidYMid meet">

<g transform="translate(0.000000,1000.000000) scale(0.100000,-0.100000)"
fill="#000000" stroke="none">
<path d="M2130 9857 c-177 -63 -278 -191 -300 -382 -6 -53 -10 -369 -10 -761
0 -588 -2 -673 -15 -678 -13 -5 -15 -80 -15 -591 0 -511 2 -586 15 -591 13 -5
15 -35 15 -184 l0 -178 -58 37 c-85 57 -196 97 -222 81 -13 -8 -43 -121 -34
-130 3 -3 20 -9 38 -15 l33 -10 -23 -98 c-12 -54 -24 -101 -27 -103 -2 -3 -16
0 -31 6 -32 12 -28 19 -61 -125 -14 -60 -37 -159 -51 -220 -28 -120 -41 -179
-73 -330 -12 -54 -26 -115 -31 -135 -5 -19 -18 -77 -30 -127 -33 -153 -59
-268 -80 -360 -10 -49 -35 -160 -55 -248 -20 -88 -42 -187 -50 -220 -18 -80
-52 -229 -77 -340 -10 -49 -28 -126 -38 -170 -23 -98 -52 -228 -80 -355 -12
-52 -26 -113 -31 -135 -17 -74 -119 -529 -139 -623 -11 -52 -22 -98 -25 -103
-4 -5 -10 -32 -15 -61 -5 -29 -23 -114 -40 -188 -18 -74 -40 -173 -50 -220
-11 -47 -26 -114 -34 -150 -8 -36 -24 -105 -35 -155 -11 -49 -38 -169 -60
-265 -21 -96 -37 -187 -34 -201 3 -15 -1 -32 -9 -40 -12 -12 -26 -66 -78 -299
-4 -19 -17 -75 -28 -125 -94 -420 -112 -527 -112 -677 0 -89 3 -108 15 -108
11 0 15 -12 15 -47 0 -95 21 -117 60 -64 14 21 19 39 15 58 -4 23 -4 24 4 8 5
-11 10 -14 10 -7 1 7 13 17 27 22 29 11 88 127 128 252 27 83 109 422 166 683
12 55 28 128 36 162 8 34 12 74 8 88 -4 17 -1 32 9 43 16 18 26 52 51 167 23
109 61 277 96 430 31 138 37 164 80 355 12 52 28 124 36 160 8 36 23 103 34
150 10 47 30 137 45 200 14 63 35 156 46 205 11 50 26 117 34 150 7 33 22 101
34 150 11 50 38 171 61 270 22 99 49 218 60 265 10 47 31 137 45 200 15 63 33
144 40 180 8 36 26 117 40 180 34 145 62 271 75 335 6 28 22 97 35 155 27 111
39 166 80 350 14 63 35 153 45 200 22 95 49 219 80 360 12 52 30 129 41 171
10 41 19 78 19 81 0 4 -13 9 -30 13 -35 8 -35 10 -15 107 24 113 20 107 70
105 l45 -2 0 -66 c0 -50 -4 -68 -15 -73 -23 -8 -23 -774 0 -782 13 -5 15 -288
15 -2457 0 -1771 3 -2469 11 -2516 30 -173 139 -305 297 -359 43 -15 203 -18
1707 -24 913 -4 1696 -8 1740 -8 44 -1 913 1 1930 4 1308 4 1870 9 1920 17 90
15 155 48 227 117 70 66 111 148 127 249 8 51 11 771 11 2522 0 2172 2 2451
15 2451 13 0 15 51 15 395 0 344 -2 395 -15 395 -23 0 -23 565 0 574 13 5 15
80 15 591 0 511 -2 586 -15 591 -13 5 -15 92 -15 694 0 429 -4 717 -11 764
-25 184 -131 309 -308 366 -63 20 -78 20 -3670 20 l-3606 0 -65 -23z m3433
-14 c-7 -2 -21 -2 -30 0 -10 3 -4 5 12 5 17 0 24 -2 18 -5z m-3376 -9 c-3 -3
-12 -4 -19 -1 -8 3 -5 6 6 6 11 1 17 -2 13 -5z m3298 -4 c-3 -5 -13 -10 -21
-10 -8 0 -12 5 -9 10 3 6 13 10 21 10 8 0 12 -4 9 -10z m-3122 -27 c-7 -2 -19
-2 -25 0 -7 3 -2 5 12 5 14 0 19 -2 13 -5z m3064 1 c-3 -3 -12 -4 -19 -1 -8 3
-5 6 6 6 11 1 17 -2 13 -5z m-3377 -24 c-14 -11 -29 -20 -35 -20 -5 0 4 9 20
20 38 25 48 25 15 0z m3260 -45 c-7 -8 -16 -15 -21 -15 -5 0 -1 8 9 18 20 22
31 19 12 -3z m3375 -4 c242 -4 407 -8 368 -9 -66 -2 -73 -4 -73 -22 0 -13 -7
-20 -20 -20 -17 0 -20 -7 -20 -40 0 -22 5 -40 10 -40 6 0 10 -13 10 -30 0 -23
-4 -30 -20 -30 -11 0 -20 -4 -20 -10 0 -5 -18 -10 -40 -10 l-40 0 0 -80 0 -80
-75 0 c-67 0 -79 -3 -100 -25 -14 -13 -25 -31 -25 -40 0 -11 -11 -15 -40 -15
-33 0 -40 -3 -40 -20 0 -16 -7 -20 -30 -20 -23 0 -30 -4 -30 -20 0 -16 7 -20
30 -20 l30 0 0 -120 0 -120 30 0 c23 0 30 -5 30 -19 0 -22 -29 -36 -43 -22 -7
7 -15 7 -23 0 -8 -7 -28 -5 -66 8 -46 15 -49 18 -25 21 15 2 27 7 27 12 0 5
-14 5 -32 0 -38 -11 -142 15 -132 32 4 7 2 8 -5 4 -6 -4 -67 6 -134 22 -123
30 -171 40 -307 64 -101 17 -613 18 -690 1 -30 -7 -87 -19 -127 -28 -40 -8
-108 -27 -153 -41 -46 -14 -90 -22 -103 -19 -15 4 -18 3 -9 -3 9 -6 -1 -14
-35 -27 -66 -24 -293 -135 -322 -157 -14 -10 -33 -16 -45 -13 -12 3 -15 2 -8
-1 9 -4 7 -11 -9 -25 -12 -10 -26 -19 -30 -19 -4 0 -14 -6 -21 -13 -7 -7 -30
-23 -52 -36 -21 -13 -49 -33 -61 -45 -13 -12 -40 -34 -61 -51 -81 -65 -132
-111 -191 -171 -58 -60 -84 -80 -67 -52 4 7 3 8 -5 4 -6 -4 -8 -12 -5 -18 3
-5 -7 -24 -23 -41 -17 -18 -42 -49 -58 -69 -15 -21 -32 -35 -39 -31 -6 3 -8 3
-4 -2 9 -9 -90 -157 -100 -151 -5 3 -9 -4 -9 -15 -1 -10 -10 -32 -21 -47 -28
-40 -152 -274 -152 -286 0 -7 -6 -20 -14 -31 -8 -11 -20 -40 -27 -65 -7 -25
-17 -50 -22 -57 -9 -12 -36 -109 -62 -219 -8 -34 -18 -72 -24 -85 -5 -13 -15
-71 -23 -129 -11 -92 -13 43 -16 1110 -2 928 0 1226 9 1260 33 123 117 198
241 219 63 10 2509 12 3143 2z m653 -8 c-10 -2 -28 -2 -40 0 -13 2 -5 4 17 4
22 1 32 -1 23 -4z m127 -23 c3 -5 2 -10 -4 -10 -5 0 -13 5 -16 10 -3 6 -2 10
4 10 5 0 13 -4 16 -10z m-6866 -114 c-2 -2 -17 -6 -34 -10 -22 -5 -26 -4 -15
4 14 9 59 15 49 6z m-124 -40 c-11 -7 -30 -16 -42 -20 -13 -4 -33 -16 -45 -26
-13 -11 -45 -38 -73 -61 -54 -44 -114 -116 -115 -136 0 -7 -5 -13 -10 -13 -26
0 61 116 130 174 52 44 138 95 160 96 10 0 9 -4 -5 -14z m7142 -28 c-3 -7 -5
-2 -5 12 0 14 2 19 5 13 2 -7 2 -19 0 -25z m-7462 -304 c-14 -37 -26 -76 -26
-88 -1 -17 -2 -18 -6 -3 -6 24 38 157 52 157 3 0 -6 -30 -20 -66z m-38 -211
c-2 -21 -4 -6 -4 32 0 39 2 55 4 38 2 -18 2 -50 0 -70z m553 37 c0 -5 -4 -10
-10 -10 -5 0 -10 5 -10 10 0 6 5 10 10 10 6 0 10 -4 10 -10z m5995 -170 c7
-12 -12 -12 -40 0 -18 8 -17 9 7 9 15 1 30 -3 33 -9z m62 -36 c-3 -3 -12 -4
-19 -1 -8 3 -5 6 6 6 11 1 17 -2 13 -5z m-4906 -268 c52 -22 73 -53 73 -109 0
-64 -40 -107 -108 -114 -43 -5 -48 -3 -86 35 -30 29 -40 48 -40 71 0 44 25 88
63 111 38 24 54 25 98 6z m-2001 -570 c0 -3 -4 -8 -10 -11 -5 -3 -10 -1 -10 4
0 6 5 11 10 11 6 0 10 -2 10 -4z m5037 -918 c-3 -8 -6 -5 -6 6 -1 11 2 17 5
13 3 -3 4 -12 1 -19z m28 -96 c-4 -5 16 -61 46 -129 10 -24 19 -47 19 -52 0
-18 126 -257 173 -326 82 -123 88 -128 136 -120 22 4 41 11 41 16 0 5 5 9 10
9 6 0 10 -9 10 -20 0 -25 8 -25 30 0 12 14 32 20 81 22 35 2 67 8 72 13 4 6
11 4 18 -5 8 -11 12 -12 16 -2 6 14 93 17 93 2 0 -5 20 -10 44 -10 24 0 46 -4
48 -9 2 -5 34 -11 71 -14 45 -3 75 -11 88 -23 12 -10 38 -18 69 -19 28 -1 56
-7 62 -13 19 -19 30 -14 16 6 -16 23 -131 152 -214 242 -115 122 -144 159
-137 177 4 11 8 13 11 5 2 -7 10 -12 18 -12 10 0 14 15 14 60 0 53 2 60 20 60
13 0 20 -7 20 -20 0 -13 7 -20 20 -20 13 0 20 7 20 20 0 17 7 20 50 20 43 0
50 3 50 20 0 16 7 20 30 20 17 0 30 5 30 10 0 6 9 10 20 10 11 0 20 4 20 8 0
14 48 32 85 32 19 0 35 -4 35 -10 0 -5 18 -10 40 -10 22 0 40 5 40 10 0 6 13
10 29 10 16 0 32 6 34 13 4 7 8 3 12 -10 4 -13 15 -23 25 -23 10 0 30 -15 45
-32 66 -82 73 -88 115 -88 22 0 40 5 40 10 0 6 14 10 30 10 23 0 30 5 30 19 0
11 6 22 13 25 10 5 10 7 0 12 -26 12 -12 24 27 24 22 0 40 -4 40 -10 0 -5 14
-10 30 -10 23 0 30 4 30 20 0 11 5 20 10 20 6 0 10 7 10 16 0 23 25 44 54 44
24 0 26 -4 26 -40 0 -33 3 -40 20 -40 11 0 20 -4 20 -10 0 -5 9 -10 20 -10 17
0 20 7 20 40 0 22 -4 40 -10 40 -5 0 -10 14 -10 30 0 23 4 30 20 30 11 0 20 5
20 10 0 18 55 11 70 -10 12 -17 26 -20 82 -20 39 0 68 4 68 10 0 6 18 10 40
10 22 0 40 5 40 10 0 6 -13 10 -30 10 -16 0 -30 5 -30 10 0 6 14 10 30 10 17
0 30 -4 30 -10 0 -6 27 -10 60 -10 53 0 60 -2 60 -20 0 -11 6 -20 14 -20 8 0
18 -9 21 -20 5 -16 15 -20 46 -20 32 0 39 -3 39 -20 0 -18 7 -20 55 -20 48 0
55 -2 55 -20 0 -11 5 -20 10 -20 6 0 10 -18 10 -40 0 -30 5 -42 21 -50 11 -7
22 -10 23 -8 2 2 8 12 14 23 10 17 17 -954 16 -2060 -1 -539 -6 -828 -15 -812
-5 9 -7 22 -4 28 9 14 -13 39 -29 33 -8 -3 -16 2 -19 10 -4 10 -1 13 9 9 10
-4 14 3 14 30 0 19 -4 37 -9 39 -5 2 -11 17 -13 33 -2 17 -8 30 -13 30 -6 0
-9 -4 -7 -8 1 -5 5 -30 8 -55 l5 -47 -14 40 c-8 22 -29 85 -47 140 -18 55 -36
102 -40 105 -5 3 -13 23 -19 45 -6 22 -22 63 -36 90 -15 28 -40 83 -57 124
-17 41 -48 100 -68 130 -39 60 -70 122 -70 140 0 8 -45 11 -142 10 -123 -1
-136 -3 -90 -11 57 -10 58 -12 53 -98 -2 -32 -10 -51 -28 -68 -14 -12 -22 -29
-19 -37 4 -10 -5 -16 -32 -20 -66 -11 -68 -13 -17 -14 72 -1 94 19 102 92 l6
57 88 0 89 0 0 -55 c0 -72 -18 -155 -41 -184 -10 -13 -16 -27 -13 -32 3 -5 1
-9 -5 -9 -6 0 -27 -11 -47 -25 -20 -14 -44 -25 -53 -25 -9 0 -24 -6 -33 -13
-14 -11 -9 -13 33 -13 43 0 50 3 55 23 12 45 29 24 32 -37 2 -60 2 -61 -28
-67 -35 -6 -50 -23 -23 -23 46 -1 -38 -28 -107 -34 -41 -4 -79 -11 -84 -16 -6
-6 -8 -11 -5 -12 2 0 74 -4 159 -7 l155 -6 3 -92 3 -93 -388 -2 c-319 -3 -378
-5 -333 -14 33 -7 44 -12 28 -13 -36 -1 -58 -11 -58 -25 0 -7 -16 -18 -35 -26
-24 -9 -31 -16 -23 -22 9 -5 1 -10 -22 -15 l-35 -7 45 -9 c25 -5 171 -12 325
-16 278 -6 280 -6 330 -33 50 -26 98 -71 127 -118 26 -42 48 -135 48 -199 0
-143 -59 -251 -170 -311 l-65 -35 -377 -3 -378 -3 0 80 c0 43 3 86 6 95 5 14
45 16 345 16 375 0 386 2 432 61 14 19 28 51 32 72 15 77 -45 169 -118 182
-55 10 -688 1 -640 -9 39 -8 44 -12 53 -47 9 -34 14 -39 40 -39 17 0 30 -2 30
-4 0 -2 3 -11 6 -20 5 -13 -2 -16 -35 -16 -33 0 -41 -3 -41 -19 0 -15 -10 -19
-50 -23 -35 -4 -56 -12 -69 -27 -10 -11 -30 -21 -44 -21 -19 0 -29 -8 -39 -30
-7 -17 -19 -30 -25 -30 -7 0 -13 -4 -13 -10 0 -5 -9 -10 -20 -10 -11 0 -20 -4
-20 -9 0 -7 -28 -13 -117 -23 -7 -1 -13 -8 -13 -15 0 -8 5 -11 10 -8 6 4 10
-6 10 -22 0 -24 -4 -20 -29 27 -25 48 -71 124 -179 298 -15 23 -30 42 -34 42
-5 0 -8 -25 -8 -55 l0 -55 -40 0 c-46 0 -48 -3 -19 -33 31 -33 55 -85 70 -150
24 -110 -18 -235 -111 -327 -58 -59 -103 -85 -185 -106 -186 -50 -395 43 -471
209 -23 51 -29 79 -32 154 -4 83 -1 98 23 150 14 32 36 68 47 80 l21 23 -41 0
-42 0 0 95 0 95 365 0 c201 0 365 3 365 6 0 3 -6 12 -12 20 -7 7 -35 42 -63
77 -43 55 -79 86 -163 142 -8 6 -24 18 -34 28 -17 17 -32 22 -53 17 -5 -1 -7
2 -3 6 4 4 3 13 -3 20 -8 10 -32 -4 -107 -60 -131 -98 -282 -206 -287 -206 -3
0 -5 53 -6 118 0 64 -3 110 -6 102 -8 -23 -34 -40 -60 -40 -14 0 -23 -6 -23
-15 0 -12 -16 -15 -80 -15 -44 0 -80 4 -80 8 0 5 -12 14 -26 20 -20 10 -24 10
-18 0 11 -19 89 -111 177 -210 42 -48 77 -92 77 -98 0 -5 -10 -10 -21 -10 -16
0 -20 -5 -17 -18 3 -10 -1 -23 -8 -30 -8 -7 -17 -30 -20 -52 -4 -25 -13 -41
-24 -45 -10 -3 -28 -14 -40 -25 -13 -11 -33 -20 -44 -20 -12 0 -28 -9 -36 -20
-10 -14 -26 -20 -52 -20 -21 0 -38 -4 -38 -10 0 -5 -9 -10 -20 -10 -11 0 -20
5 -20 10 0 6 -9 10 -20 10 -11 0 -20 5 -20 10 0 6 -9 10 -20 10 -11 0 -20 5
-20 10 0 19 -29 10 -32 -10 -4 -27 -22 -27 -26 0 -2 12 -11 24 -20 27 -9 4
-29 19 -44 35 -14 15 -33 28 -42 28 -9 0 -16 4 -16 10 0 9 -23 7 -87 -6 -18
-3 -23 -11 -23 -34 0 -20 -5 -30 -15 -30 -10 0 -15 10 -15 30 l0 30 -112 0
c-77 0 -108 3 -98 10 8 5 12 10 8 10 -3 0 -14 3 -24 7 -12 4 -15 3 -10 -5 4
-7 1 -12 -8 -12 -9 0 -16 5 -16 10 0 6 -13 10 -30 10 -23 0 -30 4 -30 20 0 17
-7 20 -40 20 -22 0 -40 5 -40 10 0 6 -9 10 -20 10 -13 0 -20 7 -20 20 0 17 -7
20 -40 20 -33 0 -40 3 -40 20 0 13 -7 20 -20 20 -17 0 -20 7 -20 40 0 33 -3
40 -20 40 -16 0 -20 7 -20 35 0 34 -1 35 -40 35 -23 0 -40 5 -40 11 0 7 -11 9
-27 6 -32 -6 -65 19 -43 33 11 7 10 11 -3 24 -19 19 -63 21 -70 4 -4 -10 -8
-9 -16 2 -9 12 -11 11 -11 -7 0 -13 -4 -23 -10 -23 -7 0 -10 427 -9 1263 1
1261 1 1262 19 1125 10 -75 23 -151 28 -170 6 -18 20 -71 32 -118 34 -135 94
-317 134 -405 13 -27 26 -60 30 -71 9 -31 113 -222 135 -250 16 -20 20 -21 25
-8 9 24 7 64 -3 64 -5 0 -12 -8 -15 -17 -3 -10 -4 -5 -2 10 2 16 -3 35 -11 43
-10 9 -13 24 -9 41 6 20 4 24 -8 20 -20 -8 -24 18 -31 213 -4 102 -2 172 6
205 6 28 13 74 16 103 3 28 9 52 14 52 5 0 9 14 9 30 0 17 5 30 10 30 6 0 10
9 10 20 0 11 5 20 10 20 6 0 10 21 10 46 0 44 16 74 40 74 16 0 40 26 40 42 0
8 9 20 20 28 11 8 20 21 20 29 0 7 10 22 22 33 18 15 20 21 9 28 -12 7 -11 11
4 27 13 13 20 14 23 5 7 -23 22 -12 22 18 0 17 5 30 10 30 6 0 10 -4 10 -10 0
-5 9 -10 20 -10 11 0 20 5 20 10 0 6 -4 10 -10 10 -5 0 -10 5 -10 10 0 6 14
10 30 10 23 0 30 4 30 20 0 12 7 20 16 20 20 0 44 24 44 44 0 9 8 16 20 16 11
0 20 5 20 10 0 6 7 10 16 10 20 0 44 24 44 44 0 9 7 16 16 16 9 0 29 14 44 30
21 23 37 30 64 30 29 0 36 4 36 20 0 12 7 20 16 20 20 0 44 24 44 44 0 9 8 16
20 16 11 0 20 5 20 10 0 6 27 10 60 10 33 0 60 4 60 10 0 6 -4 10 -10 10 -5 0
-10 9 -10 20 0 13 7 20 20 20 11 0 20 5 20 10 0 6 33 10 80 10 47 0 80 -4 80
-10 0 -18 35 -11 50 10 8 11 22 20 32 20 10 0 18 5 18 10 0 6 9 10 20 10 20 0
28 15 11 22 -5 2 -7 15 -4 30 l5 28 19 -37 c10 -20 17 -39 14 -41z m1340 -12
c3 -5 -1 -10 -9 -10 -9 0 -16 5 -16 10 0 6 4 10 9 10 6 0 13 -4 16 -10z
m-5585 -70 c0 -5 -5 -10 -11 -10 -5 0 -7 5 -4 10 3 6 8 10 11 10 2 0 4 -4 4
-10z m4900 -30 c0 -5 -4 -10 -10 -10 -5 0 -10 5 -10 10 0 6 5 10 10 10 6 0 10
-4 10 -10z m220 0 c0 -5 -9 -10 -20 -10 -11 0 -20 5 -20 10 0 6 9 10 20 10 11
0 20 -4 20 -10z m-155 -70 c3 -6 -1 -7 -9 -4 -18 7 -21 14 -7 14 6 0 13 -4 16
-10z m-6006 -209 c13 -7 16 -18 13 -41 -2 -16 -8 -33 -13 -36 -5 -3 -9 -14 -9
-25 0 -15 -6 -20 -22 -17 -20 3 -23 8 -20 47 2 41 16 81 28 81 3 0 13 -4 23
-9z m-8 -206 c-15 -80 -31 -138 -38 -132 -2 3 6 48 18 101 25 104 37 121 20
31z m4209 -39 c0 -8 -4 -18 -10 -21 -5 -3 -10 3 -10 14 0 12 5 21 10 21 6 0
10 -6 10 -14z m1540 -2376 c0 -5 -4 -10 -10 -10 -5 0 -10 5 -10 10 0 6 5 10
10 10 6 0 10 -4 10 -10z m2267 -57 c-3 -10 -5 -4 -5 12 0 17 2 24 5 18 2 -7 2
-21 0 -30z m-8747 -923 c0 -5 -7 -10 -15 -10 -15 0 -18 -11 -55 -180 -12 -58
-29 -129 -37 -159 -8 -29 -12 -60 -9 -68 4 -8 1 -11 -5 -7 -16 10 -4 82 58
334 15 62 36 100 55 100 4 0 8 -4 8 -10z m6858 -227 l3 -93 -491 0 -490 0 0
95 0 95 488 -2 487 -3 3 -92z m1262 47 c58 -13 85 -27 138 -68 55 -44 90 -96
108 -163 36 -138 -4 -286 -100 -371 -58 -51 -115 -72 -203 -76 -138 -7 -161 4
-543 243 l-115 72 -3 107 c-1 58 1 106 5 106 4 0 19 -9 33 -20 14 -11 28 -20
31 -20 4 0 60 -36 125 -79 l119 -79 7 67 c3 36 14 83 23 105 19 45 102 132
142 147 93 37 158 45 233 29z m-1260 -350 l0 -90 -47 0 -47 0 26 -27 c68 -72
99 -185 78 -285 -30 -146 -124 -252 -263 -298 -88 -29 -213 -25 -300 9 -81 32
-166 113 -203 193 -55 122 -43 265 32 364 l34 44 -45 0 -45 0 0 90 0 90 390 0
390 0 0 -90z m905 -404 c28 -13 66 -38 86 -57 36 -35 129 -152 129 -164 0 -13
89 -122 125 -153 19 -18 47 -32 60 -32 l25 0 2 213 3 212 85 0 85 0 3 -307 2
-308 -106 0 c-59 0 -125 5 -148 12 -85 24 -172 104 -261 238 -28 41 -73 99
-101 129 -48 51 -53 54 -99 54 -41 0 -52 -4 -77 -31 -24 -28 -28 -40 -28 -93
0 -72 15 -98 81 -143 l48 -32 -31 -65 c-17 -35 -35 -69 -40 -76 -14 -17 -64
12 -124 72 -73 72 -97 141 -92 261 3 77 7 99 33 149 50 96 127 144 235 144 37
1 71 -7 105 -23z m-1212 -417 c124 -41 238 -142 284 -254 75 -177 29 -420
-102 -550 -192 -190 -515 -193 -705 -5 -70 69 -102 124 -130 225 -50 177 3
369 137 499 43 42 89 73 97 65 10 -12 86 -144 86 -150 0 -4 -20 -22 -44 -40
-83 -64 -125 -164 -113 -275 19 -185 192 -311 377 -275 137 27 224 113 251
248 29 144 -36 274 -164 328 l-37 15 0 -155 0 -155 -85 0 -85 0 0 250 0 250
85 0 c60 0 105 -6 148 -21z m1658 -272 c208 -107 229 -428 42 -633 l-45 -49
-24 30 c-14 17 -43 54 -66 83 l-41 53 46 44 c56 53 77 100 77 175 0 50 -4 61
-32 94 -26 29 -43 39 -75 43 -38 5 -46 2 -76 -28 -22 -23 -40 -58 -56 -109
-60 -188 -95 -252 -162 -297 -47 -31 -149 -42 -218 -23 -62 17 -141 97 -171
175 -52 137 -12 333 88 428 l30 28 56 -72 56 -73 -24 -25 c-45 -49 -66 -94
-66 -144 0 -84 41 -137 105 -137 54 0 74 22 110 120 95 257 112 285 201 330
27 13 60 19 111 20 61 0 80 -4 134 -33z m-8828 -1127 c-6 -22 -23 -38 -23 -21
0 17 12 41 20 41 5 0 6 -9 3 -20z"/>
<path d="M8760 9640 c0 -33 3 -40 20 -40 17 0 20 7 20 40 0 33 -3 40 -20 40
-17 0 -20 -7 -20 -40z"/>
<path d="M7410 9618 c-13 -7 -35 -29 -48 -48 -69 -101 48 -232 157 -176 109
57 81 220 -40 232 -25 3 -54 -1 -69 -8z"/>
<path d="M8660 9580 c0 -11 -4 -20 -10 -20 -5 0 -10 -4 -10 -10 0 -5 9 -10 20
-10 16 0 20 7 20 30 0 17 -4 30 -10 30 -5 0 -10 -9 -10 -20z"/>
<path d="M8460 9190 c0 -5 -11 -10 -25 -10 -14 0 -25 -4 -25 -10 0 -5 16 -10
35 -10 28 0 35 4 35 20 0 11 -4 20 -10 20 -5 0 -10 -4 -10 -10z"/>
<path d="M7805 9110 c27 -12 43 -12 25 0 -8 5 -22 9 -30 9 -10 0 -8 -3 5 -9z"/>
<path d="M8410 9100 c0 -16 7 -20 35 -20 28 0 35 4 35 20 0 16 -7 20 -35 20
-28 0 -35 -4 -35 -20z"/>
<path d="M8240 9050 c-8 -5 -26 -10 -40 -11 -17 -1 -13 -4 15 -9 22 -5 51 -11
65 -14 24 -6 24 -6 3 5 -12 6 -23 18 -25 25 -2 9 -7 11 -18 4z"/>
<path d="M8394 9035 c-7 -27 9 -55 29 -51 35 6 57 19 57 32 0 45 -75 62 -86
19z"/>
<path d="M6640 6910 c0 -5 18 -10 40 -10 22 0 40 5 40 10 0 6 -18 10 -40 10
-22 0 -40 -4 -40 -10z"/>
<path d="M8000 6860 c0 -17 7 -20 40 -20 33 0 40 3 40 20 0 17 -7 20 -40 20
-33 0 -40 -3 -40 -20z"/>
<path d="M7705 6680 c3 -5 10 -10 16 -10 5 0 9 5 9 10 0 6 -7 10 -16 10 -8 0
-12 -4 -9 -10z"/>
<path d="M5720 6210 c0 -5 5 -10 10 -10 6 0 10 5 10 10 0 6 -4 10 -10 10 -5 0
-10 -4 -10 -10z"/>
<path d="M8788 6133 c72 -2 192 -2 265 0 72 1 13 3 -133 3 -146 0 -205 -2
-132 -3z"/>
<path d="M9232 5995 c0 -16 2 -22 5 -12 2 9 2 23 0 30 -3 6 -5 -1 -5 -18z"/>
<path d="M9188 5941 l-46 -6 30 -35 c17 -19 27 -29 23 -21 -6 10 -4 12 4 7 7
-5 17 -19 22 -33 5 -14 12 -23 15 -20 3 3 1 14 -5 25 -14 27 -14 65 1 80 7 7
10 11 8 10 -3 0 -26 -4 -52 -7z"/>
<path d="M8493 5933 c9 -2 23 -2 30 0 6 3 -1 5 -18 5 -16 0 -22 -2 -12 -5z"/>
<path d="M8756 5931 c-3 -4 6 -6 19 -3 14 2 25 6 25 8 0 8 -39 4 -44 -5z"/>
<path d="M8870 5930 c-11 -7 -7 -9 17 -7 17 1 29 5 26 10 -6 10 -25 9 -43 -3z"/>
<path d="M8451 5842 c-17 -31 -13 -40 5 -14 9 13 14 26 11 29 -3 2 -10 -4 -16
-15z"/>
<path d="M9040 5801 c0 -11 4 -22 9 -25 4 -3 6 6 3 19 -5 30 -12 33 -12 6z"/>
<path d="M9253 5690 c0 -30 2 -43 4 -27 2 15 2 39 0 55 -2 15 -4 2 -4 -28z"/>
<path d="M8641 5610 c0 -17 14 -36 48 -65 l24 -20 -14 23 c-8 12 -17 22 -22
22 -4 0 -5 5 -1 12 4 7 3 8 -5 4 -7 -4 -15 2 -20 16 -6 13 -10 16 -10 8z"/>
<path d="M8983 5560 c-13 -5 -23 -11 -23 -14 0 -8 30 0 42 12 14 14 11 14 -19
2z"/>
<path d="M8565 5380 c3 -5 8 -10 11 -10 2 0 4 5 4 10 0 6 -5 10 -11 10 -5 0
-7 -4 -4 -10z"/>
<path d="M8625 5340 c3 -5 8 -10 11 -10 2 0 4 5 4 10 0 6 -5 10 -11 10 -5 0
-7 -4 -4 -10z"/>
<path d="M8973 5063 c20 -2 54 -2 75 0 20 2 3 4 -38 4 -41 0 -58 -2 -37 -4z"/>
<path d="M8623 4355 c0 -33 2 -45 4 -27 2 18 2 45 0 60 -2 15 -4 0 -4 -33z"/>
<path d="M8653 4403 c9 -2 25 -2 35 0 9 3 1 5 -18 5 -19 0 -27 -2 -17 -5z"/>
<path d="M7118 4243 c6 -2 12 -11 12 -19 0 -8 6 -14 13 -14 7 0 8 -3 2 -8 -5
-4 -17 -16 -25 -27 -13 -16 -10 -16 18 4 l33 23 -22 24 c-12 13 -27 24 -33 23
-6 0 -5 -3 2 -6z"/>
<path d="M8818 4233 c12 -2 32 -2 45 0 12 2 2 4 -23 4 -25 0 -35 -2 -22 -4z"/>
<path d="M7080 4150 c-9 -6 -10 -10 -3 -10 6 0 15 5 18 10 8 12 4 12 -15 0z"/>
<path d="M7019 4099 l-24 -20 28 17 c15 9 27 18 27 20 0 8 -8 4 -31 -17z"/>
<path d="M5880 3610 c0 -5 9 -10 20 -10 11 0 20 5 20 10 0 6 -9 10 -20 10 -11
0 -20 -4 -20 -10z"/>
<path d="M7234 3561 c-188 -86 -177 -354 18 -421 72 -25 94 -25 161 0 162 61
206 266 80 381 -63 58 -180 76 -259 40z"/>
<path d="M6048 3563 c6 -2 18 -2 25 0 6 3 1 5 -13 5 -14 0 -19 -2 -12 -5z"/>
<path d="M8013 3383 c9 -2 25 -2 35 0 9 3 1 5 -18 5 -19 0 -27 -2 -17 -5z"/>
<path d="M8825 2612 c-45 -29 -63 -52 -76 -105 -29 -106 47 -197 163 -197 156
0 221 198 95 291 -44 32 -139 38 -182 11z"/>
<path d="M7242 2362 c-51 -21 -104 -69 -126 -116 -18 -38 -21 -123 -6 -177 11
-38 68 -102 110 -124 109 -56 261 -10 320 95 33 60 34 156 2 217 -53 100 -191
149 -300 105z"/>
</g>
</svg>
