<svg width="77" height="50" viewBox="0 0 77 50" fill="none" xmlns="http://www.w3.org/2000/svg">
<rect width="77" height="50" rx="6" fill="#006FCF"/>
<path d="M76.9489 39.7012V27.0921H29.2113L27.9938 28.7949L26.7933 27.0921H13.0689V40.5356H26.7423L27.9342 38.7817L29.1602 40.5356H37.7252V37.6324H37.6316C38.6163 37.6346 39.5936 37.4616 40.5178 37.1215V40.5271H46.4776V38.5689L47.9845 40.5271H73.8924C74.5978 40.5313 75.2983 40.4102 75.9613 40.1695C76.3061 40.0452 76.6371 39.8854 76.9489 39.6927V39.7012ZM67.524 22.469H73.2964V9.02554H67.1323V11.1455L65.7616 9H60.3893V11.7415L59.1803 9.02554H50.3003C49.8813 9.02221 49.4627 9.05354 49.0488 9.1192C48.7112 9.1696 48.3781 9.24647 48.0526 9.34907C47.509 9.51359 46.9926 9.75744 46.5201 10.0728V9.02554H17.5217L16.7299 11.3669L15.9296 9.02554H9.17802V11.767L7.96053 9.02554H2.46053L0 14.7724V22.435H3.89938L4.62306 20.5108H5.95975L6.70046 22.4435H36.7291V20.5108L38.2276 22.469H46.5201V21.4899C46.732 21.6234 46.9509 21.7456 47.1757 21.856C47.402 21.9602 47.6352 22.0484 47.8738 22.12C48.1521 22.2135 48.4366 22.2875 48.7252 22.3413C49.1889 22.4249 49.6589 22.4676 50.13 22.469H55.0937L55.8429 20.5108H57.2136L57.9543 22.4435H66.2639V20.5108L67.524 22.5116V22.469Z" fill="white"/>
<path d="M22.4255 31.1192V29.2802H15.1802V38.3901H22.4255V36.5171H17.3172V34.6951H22.2808V32.8816H17.3512V31.1192H22.4255ZM29.9774 38.3901H32.7018L29.0579 33.8181L32.6763 29.3228H30.0285L27.8063 32.2005L25.5927 29.3228H22.8683L26.4952 33.8522L22.8853 38.3901H25.5416L27.7723 35.4698L29.9774 38.3901ZM33.2042 29.2802V38.3901H35.3752V35.3506H38.1082C38.5245 35.3855 38.9434 35.3322 39.3376 35.1942C39.7319 35.0562 40.0927 34.8367 40.3963 34.5499C40.7 34.2631 40.9398 33.9154 41.1001 33.5297C41.2604 33.1439 41.3375 32.7287 41.3265 32.3112C41.3461 31.8984 41.2773 31.4862 41.1249 31.1021C40.9724 30.718 40.7397 30.3709 40.4423 30.084C40.1449 29.7971 39.7896 29.577 39.4003 29.4383C39.011 29.2997 38.5966 29.2458 38.1848 29.2802H33.2042ZM39.1639 32.3197C39.1731 32.4715 39.1494 32.6235 39.0944 32.7653C39.0395 32.9071 38.9545 33.0354 38.8453 33.1413C38.7362 33.2472 38.6054 33.3283 38.4621 33.379C38.3187 33.4297 38.166 33.4488 38.0145 33.435H35.3497V31.2129H37.9549C38.106 31.1978 38.2585 31.2157 38.4019 31.2654C38.5453 31.315 38.6762 31.3953 38.7855 31.5006C38.8948 31.6058 38.98 31.7336 39.035 31.8751C39.0901 32.0165 39.1137 32.1682 39.1043 32.3197H39.1639ZM44.7065 35.0782H45.7367L48.3845 38.3901H51.0834L48.0695 34.9845C48.7593 34.9002 49.3931 34.5625 49.8479 34.037C50.3026 33.5115 50.5457 32.8357 50.53 32.1409C50.53 30.4381 49.3296 29.2632 47.3969 29.2632H42.4758V38.3901H44.6469V35.0782H44.7065ZM47.2607 31.1277C47.4155 31.1144 47.5714 31.1341 47.718 31.1854C47.8647 31.2368 47.9988 31.3187 48.1114 31.4257C48.2241 31.5327 48.3128 31.6625 48.3716 31.8063C48.4304 31.9501 48.458 32.1048 48.4526 32.2601C48.4583 32.4147 48.4308 32.5688 48.3718 32.7119C48.3128 32.8549 48.2239 32.9837 48.1109 33.0894C47.9979 33.1952 47.8635 33.2754 47.7168 33.3247C47.5701 33.3741 47.4146 33.3914 47.2607 33.3754H44.7065V31.1277H47.2607ZM59.41 31.1277V29.2802H52.0966V38.3901H59.3505V36.5171H54.2421V34.6951H59.1972V32.8816H54.2761V31.1192L59.41 31.1277ZM65.3698 36.5426H60.6701V38.3901H65.2506C67.2088 38.3901 68.3752 37.1982 68.3752 35.4954C68.3752 33.7926 67.328 32.9412 65.5656 32.9412H63.4712C63.2454 32.9412 63.0288 32.8515 62.8692 32.6918C62.7095 32.5322 62.6198 32.3156 62.6198 32.0898C62.6128 31.9738 62.6297 31.8576 62.6693 31.7483C62.709 31.639 62.7706 31.539 62.8504 31.4545C62.9301 31.3699 63.0264 31.3026 63.1331 31.2567C63.2399 31.2107 63.355 31.1871 63.4712 31.1873H67.4046L68.2049 29.3483H63.5308C61.5726 29.3483 60.4147 30.5403 60.4147 32.1664C60.4147 33.7926 61.513 34.7972 63.2328 34.7972H65.3187C65.5445 34.7972 65.7611 34.8869 65.9207 35.0466C66.0804 35.2063 66.1701 35.4228 66.1701 35.6486C66.1795 35.766 66.1645 35.8841 66.1259 35.9954C66.0874 36.1067 66.0262 36.2088 65.9462 36.2952C65.8661 36.3816 65.7691 36.4505 65.6611 36.4975C65.5531 36.5445 65.4365 36.5685 65.3187 36.5681L65.3698 36.5426ZM73.9944 36.5426H69.2947V38.3901H73.8752C75.8334 38.3901 76.9998 37.1982 76.9998 35.4954C76.9998 33.7926 75.9526 32.9412 74.1902 32.9412H72.0958C71.87 32.9412 71.6534 32.8515 71.4938 32.6918C71.3341 32.5322 71.2444 32.3156 71.2444 32.0898C71.2374 31.9738 71.2543 31.8576 71.2939 31.7483C71.3336 31.639 71.3952 31.539 71.475 31.4545C71.5547 31.3699 71.651 31.3026 71.7578 31.2567C71.8645 31.2107 71.9796 31.1871 72.0958 31.1873H76.0292L76.8296 29.3483H72.1554C70.1972 29.3483 69.0393 30.5403 69.0393 32.1664C69.0393 33.7926 70.1376 34.7972 71.8574 34.7972H73.9433C74.0587 34.7915 74.174 34.8092 74.2822 34.8494C74.3905 34.8896 74.4894 34.9514 74.5731 35.031C74.6567 35.1107 74.7232 35.2065 74.7687 35.3127C74.8141 35.4189 74.8374 35.5332 74.8373 35.6486C74.8472 35.7697 74.8311 35.8915 74.79 36.0058C74.7489 36.1201 74.6838 36.2243 74.5992 36.3114C74.5145 36.3985 74.4122 36.4665 74.299 36.5108C74.1859 36.5551 74.0646 36.5746 73.9433 36.5681L73.9944 36.5426Z" fill="#006FCF"/>
<path d="M8.20734 20.281H10.6594L6.81106 11.2136H3.92483L0.0424805 20.281H2.35827L3.12452 18.3313H7.43257L8.20734 20.281ZM4.61446 14.5937L5.27003 12.8909L5.93412 14.5937L6.73443 16.6029H3.82267L4.61446 14.5937ZM13.2731 14.0828L13.222 11.6393L15.7762 20.281H17.7429L20.2546 11.6904L20.2035 14.0743V20.281H22.3149V11.2136H18.4837L16.7809 17.6331L15.0781 11.2136H11.1617V20.281H13.2731V14.0828ZM31.3142 13.0526V11.2136H24.0603V20.281H31.3142V18.4249H26.2058V16.6285H31.1609V14.815H26.2399V13.0526H31.3142ZM35.0858 17.0116H36.1075L38.8149 20.281H41.5138L38.4999 16.935C39.1904 16.8487 39.8244 16.5092 40.2789 15.9823C40.7335 15.4554 40.9764 14.7785 40.9604 14.0828C40.9604 12.38 39.76 11.2136 37.8273 11.2136H32.9063V20.281H35.0858V17.0116ZM37.64 13.0611C37.7948 13.0478 37.9507 13.0675 38.0974 13.1188C38.244 13.1702 38.3781 13.2521 38.4908 13.3591C38.6034 13.4661 38.6921 13.5959 38.7509 13.7397C38.8097 13.8835 38.8373 14.0382 38.832 14.1935C38.8364 14.3474 38.8079 14.5006 38.7484 14.6426C38.6889 14.7846 38.5997 14.9123 38.4869 15.0171C38.374 15.1219 38.2401 15.2014 38.094 15.2502C37.948 15.2991 37.7932 15.3161 37.64 15.3003H35.0858V13.0611H37.64ZM42.212 20.281H44.3916V11.2136H42.2035V20.281H42.212ZM49.9426 20.281H50.0618L50.9558 18.3483H50.2917C48.8018 18.3483 47.9248 17.4118 47.9248 15.7941V15.6664C47.8824 15.3391 47.9119 15.0064 48.0115 14.6917C48.1111 14.377 48.2782 14.0879 48.5013 13.8446C48.7243 13.6013 48.9978 13.4097 49.3027 13.2832C49.6076 13.1567 49.9364 13.0983 50.2662 13.1122H52.616V11.2136H50.0618C47.2607 11.2136 45.7368 13.0867 45.7368 15.6664V15.8197C45.7368 18.5186 47.3033 20.2639 49.9171 20.281H49.9426ZM59.4357 20.281H61.8792L58.0053 11.2136H55.1446L51.2538 20.281H53.5696L54.3358 18.3313H58.6524L59.4272 20.281H59.4357ZM55.8343 14.5937L56.4984 12.8909L57.1539 14.5937L57.9628 16.6029H55.034L55.8258 14.5937H55.8343ZM64.51 14.8491V14.0998L64.9697 14.8491L68.4349 20.281H70.9891V11.2136H68.818V16.4582V17.1308L68.4179 16.4582L65.0123 11.2136H62.3815V20.281H64.5015V14.8491H64.51Z" fill="#006FCF"/>
</svg>
