<svg width="77" height="50" viewBox="0 0 77 50" fill="none" xmlns="http://www.w3.org/2000/svg">
<rect width="77" height="50" rx="6" fill="#414141"/>
<path d="M24.0398 43.3073V40.8946C24.0538 40.7073 24.0304 40.5191 23.9712 40.3409C23.9119 40.1627 23.8179 39.998 23.6946 39.8564C23.5713 39.7148 23.4211 39.599 23.2527 39.5158C23.0843 39.4326 22.9011 39.3836 22.7137 39.3717H22.534C22.2677 39.3515 22.0009 39.4046 21.7626 39.5253C21.5244 39.6459 21.3236 39.8295 21.1823 40.0561C21.0534 39.8377 20.8674 39.6585 20.6443 39.5379C20.4212 39.4173 20.1694 39.3599 19.916 39.3717C19.6947 39.3579 19.4737 39.4029 19.2754 39.502C19.077 39.6012 18.9085 39.751 18.7867 39.9364V39.4658H17.9312V43.3073H18.7867V41.1769C18.7648 41.0593 18.7677 40.9384 18.7954 40.822C18.8231 40.7056 18.8749 40.5963 18.9475 40.5011C19.02 40.406 19.1118 40.3271 19.2167 40.2696C19.3216 40.2121 19.4375 40.1773 19.5567 40.1674C19.6134 40.1588 19.6711 40.1588 19.7278 40.1674C20.301 40.1674 20.5834 40.5267 20.5834 41.1769V43.3158H21.4389V41.1769C21.4119 41.0435 21.4171 40.9055 21.4542 40.7744C21.4912 40.6434 21.559 40.5231 21.6518 40.4235C21.7447 40.324 21.86 40.248 21.9882 40.202C22.1163 40.1559 22.2536 40.1411 22.3886 40.1588C22.9447 40.1588 23.2442 40.5181 23.2442 41.1684V43.3073H24.0398ZM36.5309 39.4658H35.162V38.3023H34.3664V39.4658H33.5108V40.2273H34.3664V41.9384C34.3664 42.7939 34.7086 43.3586 35.701 43.3586C36.0488 43.3781 36.3952 43.3011 36.702 43.1361L36.4625 42.4175C36.2379 42.5551 35.9814 42.6318 35.7182 42.6399C35.2989 42.6399 35.162 42.3833 35.162 41.9897V40.2786H36.5309V39.4658ZM43.6663 39.3717C43.4621 39.3636 43.2596 39.4111 43.0803 39.509C42.9011 39.607 42.7517 39.7517 42.6482 39.9278V39.4658H41.7926V43.3073H42.6482V41.1513C42.6482 40.5181 42.9219 40.1674 43.5037 40.1674C43.6822 40.1637 43.8596 40.1957 44.0256 40.2615L44.2823 39.4744C44.0901 39.4057 43.8874 39.371 43.6834 39.3717H43.6663ZM32.8863 39.7653C32.4097 39.487 31.8635 39.3504 31.312 39.3717C30.3453 39.3717 29.7207 39.8337 29.7207 40.5951C29.7207 41.3566 30.1827 41.6133 31.0468 41.733L31.4404 41.7844C31.8938 41.8528 32.1163 41.9726 32.1163 42.1865C32.1163 42.4004 31.8083 42.657 31.2607 42.657C30.7973 42.6808 30.3393 42.5482 29.9603 42.2806L29.5667 42.9394C30.0546 43.2732 30.6356 43.4439 31.2265 43.427C32.3387 43.427 32.9804 42.9051 32.9804 42.1694C32.9804 41.4336 32.4756 41.1427 31.6372 41.0229L31.2436 40.963C30.8843 40.9117 30.5934 40.8433 30.5934 40.5866C30.5934 40.3299 30.8672 40.1331 31.3292 40.1331C31.7503 40.1405 32.1626 40.2554 32.5269 40.4668L32.8863 39.7653ZM55.2762 39.3717C55.0731 39.3633 54.8717 39.4107 54.6937 39.5088C54.5157 39.6068 54.368 39.7517 54.2666 39.9278V39.4658H53.411V43.3073H54.2666V41.1513C54.2666 40.5181 54.5404 40.1674 55.1222 40.1674C55.3005 40.1653 55.4776 40.1972 55.644 40.2615L55.9007 39.4744C55.7081 39.4072 55.5058 39.3725 55.3018 39.3717H55.2762ZM44.5047 41.425C44.493 41.9293 44.6787 42.4182 45.0224 42.7874C45.366 43.1566 45.8403 43.377 46.3442 43.4014H46.5324C47.0346 43.4273 47.5286 43.2657 47.9184 42.9479L47.5419 42.2806C47.2485 42.4956 46.8961 42.6151 46.5324 42.6228C46.2056 42.6228 45.8923 42.493 45.6612 42.262C45.4302 42.0309 45.3004 41.7176 45.3004 41.3908C45.3004 41.0641 45.4302 40.7507 45.6612 40.5197C45.8923 40.2886 46.2056 40.1588 46.5324 40.1588C46.8961 40.1665 47.2485 40.286 47.5419 40.501L47.944 39.8337C47.5576 39.5091 47.062 39.3439 46.558 39.3717C46.304 39.3567 46.0495 39.3919 45.8092 39.4754C45.5688 39.5589 45.3473 39.6891 45.1574 39.8584C44.9674 40.0277 44.8127 40.2328 44.7022 40.462C44.5917 40.6912 44.5275 40.94 44.5133 41.194C44.505 41.2622 44.505 41.3312 44.5133 41.3994L44.5047 41.425ZM52.333 41.425V39.4658H51.4775V39.9278C51.3342 39.7448 51.1491 39.5987 50.9377 39.502C50.7263 39.4052 50.4948 39.3606 50.2626 39.3717C49.7509 39.4051 49.2711 39.6318 48.9205 40.006C48.5699 40.3802 48.3749 40.8738 48.3749 41.3865C48.3749 41.8993 48.5699 42.3928 48.9205 42.767C49.2711 43.1412 49.7509 43.368 50.2626 43.4014C50.4954 43.4108 50.7272 43.3645 50.9385 43.2663C51.1498 43.168 51.3346 43.0208 51.4775 42.8367V43.3073H52.333V41.425ZM49.2274 41.425C49.2408 41.1144 49.3754 40.8213 49.6023 40.6087C49.8291 40.396 50.1303 40.2807 50.4412 40.2874C50.752 40.2941 51.0479 40.4223 51.2654 40.6446C51.4829 40.8668 51.6047 41.1654 51.6047 41.4764C51.6047 41.7873 51.4829 42.0859 51.2654 42.3081C51.0479 42.5304 50.752 42.6586 50.4412 42.6653C50.1303 42.672 49.8291 42.5567 49.6023 42.3441C49.3754 42.1314 49.2408 41.8384 49.2274 41.5277V41.425ZM28.7539 41.425V39.4658H27.8984V39.9278C27.7544 39.7412 27.5667 39.5929 27.3518 39.4959C27.137 39.3989 26.9016 39.3563 26.6664 39.3717C26.1547 39.4051 25.6749 39.6318 25.3243 40.006C24.9737 40.3802 24.7786 40.8738 24.7786 41.3865C24.7786 41.8993 24.9737 42.3928 25.3243 42.767C25.6749 43.1412 26.1547 43.368 26.6664 43.4014C26.8994 43.4122 27.1316 43.3666 27.3432 43.2682C27.5547 43.1699 27.7393 43.0218 27.8813 42.8367V43.3073H28.7368L28.7539 41.425ZM25.6483 41.425C25.6617 41.1144 25.7963 40.8213 26.0231 40.6087C26.25 40.396 26.5512 40.2807 26.8621 40.2874C27.1729 40.2941 27.4688 40.4223 27.6863 40.6446C27.9038 40.8668 28.0256 41.1654 28.0256 41.4764C28.0256 41.7873 27.9038 42.0859 27.6863 42.3081C27.4688 42.5304 27.1729 42.6586 26.8621 42.6653C26.5512 42.672 26.25 42.5567 26.0231 42.3441C25.7963 42.1314 25.6617 41.8384 25.6483 41.5277V41.425ZM39.1404 39.3717C38.6049 39.3796 38.0945 39.6 37.7214 39.9843C37.3484 40.3685 37.1433 40.8852 37.1512 41.4208C37.1592 41.9563 37.3795 42.4667 37.7638 42.8397C38.148 43.2128 38.6648 43.4179 39.2003 43.4099C39.7734 43.4296 40.3337 43.2377 40.7745 42.8709L40.3553 42.2806C40.0361 42.5333 39.6415 42.6718 39.2345 42.6741C38.9574 42.6983 38.6818 42.6135 38.4661 42.4378C38.2505 42.2621 38.1118 42.0093 38.0795 41.733H40.937C40.937 41.6304 40.937 41.5277 40.937 41.4079C40.9824 40.9228 40.8344 40.4394 40.5252 40.0628C40.2159 39.6863 39.7705 39.4471 39.2858 39.3974H39.1147L39.1404 39.3717ZM39.1404 40.1075C39.3924 40.1051 39.6355 40.2012 39.8177 40.3754C39.9998 40.5496 40.1068 40.7881 40.1157 41.04H38.1052C38.1185 40.7821 38.2327 40.5397 38.4232 40.3652C38.6137 40.1907 38.8651 40.0981 39.1233 40.1075H39.1404ZM60.1015 41.425V38.0028H59.2459V40.0134C59.1035 39.8288 58.9188 39.6811 58.7074 39.5828C58.4959 39.4846 58.264 39.4385 58.031 39.4487C57.5194 39.4821 57.0396 39.7088 56.689 40.083C56.3384 40.4572 56.1433 40.9508 56.1433 41.4635C56.1433 41.9763 56.3384 42.4698 56.689 42.844C57.0396 43.2182 57.5194 43.445 58.031 43.4784C58.2643 43.4907 58.497 43.4457 58.7088 43.3472C58.9206 43.2488 59.105 43.0999 59.2459 42.9137V43.3843H60.1015V41.425ZM56.9873 41.425C56.9996 41.1139 57.1334 40.8201 57.36 40.6066C57.5866 40.3931 57.8878 40.2769 58.1991 40.2831C58.5103 40.2893 58.8068 40.4172 59.0247 40.6395C59.2427 40.8618 59.3648 41.1608 59.3648 41.4721C59.3648 41.7834 59.2427 42.0823 59.0247 42.3046C58.8068 42.5269 58.5103 42.6549 58.1991 42.6611C57.8878 42.6672 57.5866 42.5511 57.36 42.3376C57.1334 42.1241 56.9996 41.8302 56.9873 41.5191V41.425ZM61.496 42.7854C61.5471 42.7773 61.599 42.7773 61.65 42.7854C61.6947 42.8028 61.7354 42.829 61.7698 42.8624C61.8104 42.8957 61.8402 42.9404 61.8554 42.9907C61.8681 43.0383 61.8681 43.0885 61.8554 43.1361C61.8556 43.1863 61.845 43.236 61.8243 43.2818C61.8036 43.3275 61.7734 43.3683 61.7356 43.4014C61.7056 43.4417 61.6637 43.4717 61.6158 43.4869C61.5653 43.4996 61.5124 43.4996 61.4618 43.4869C61.4112 43.4989 61.3584 43.4989 61.3078 43.4869C61.261 43.4695 61.2197 43.44 61.188 43.4014C61.1503 43.3689 61.1209 43.3278 61.1025 43.2816C61.0936 43.2335 61.0936 43.1842 61.1025 43.1361C61.1043 43.0342 61.1439 42.9367 61.2137 42.8624C61.2936 42.7962 61.3925 42.7572 61.496 42.7511V42.7854ZM61.496 43.4698C61.5356 43.4779 61.5763 43.4779 61.6158 43.4698C61.6512 43.457 61.6833 43.4366 61.71 43.41C61.7366 43.3833 61.757 43.3512 61.7698 43.3158C61.7868 43.2782 61.7956 43.2373 61.7956 43.196C61.7956 43.1547 61.7868 43.1139 61.7698 43.0763L61.7442 42.9137C61.7162 42.8888 61.6844 42.8686 61.65 42.8538C61.6124 42.8368 61.5716 42.828 61.5303 42.828C61.489 42.828 61.4481 42.8368 61.4105 42.8538C61.3756 42.8676 61.344 42.8883 61.3175 42.9148C61.291 42.9413 61.2703 42.973 61.2565 43.0078C61.2369 43.0527 61.2286 43.1017 61.2323 43.1505C61.236 43.1993 61.2516 43.2464 61.2778 43.2878C61.304 43.3292 61.3399 43.3635 61.3824 43.3878C61.425 43.4121 61.4728 43.4255 61.5217 43.427L61.496 43.4698ZM61.496 42.9907C61.5291 42.9782 61.5656 42.9782 61.5987 42.9907C61.6111 42.9994 61.6212 43.0109 61.6281 43.0243C61.6351 43.0377 61.6387 43.0526 61.6387 43.0677C61.6387 43.0828 61.6351 43.0977 61.6281 43.1111C61.6212 43.1245 61.6111 43.136 61.5987 43.1447C61.5852 43.1503 61.5706 43.1533 61.5559 43.1533C61.5412 43.1533 61.5267 43.1503 61.5132 43.1447L61.6329 43.2816H61.573L61.4618 43.1361V43.273H61.3763V42.9223L61.496 42.9907ZM61.4105 43.0591V43.1361H61.5303C61.5356 43.1322 61.5399 43.127 61.5429 43.121C61.5458 43.1151 61.5474 43.1086 61.5474 43.1019C61.5474 43.0953 61.5458 43.0887 61.5429 43.0828C61.5399 43.0768 61.5356 43.0717 61.5303 43.0677H61.4019L61.4105 43.0591Z" fill="white"/>
<path d="M45.275 10.1886H32.6128V32.9378H45.275V10.1886Z" fill="#F26522"/>
<path d="M33.4168 21.5676C33.4116 19.3754 33.9068 17.211 34.8646 15.2391C35.8223 13.2672 37.2175 11.5399 38.9437 10.1887C36.8094 8.5112 34.2462 7.46804 31.5471 7.17841C28.848 6.88879 26.1219 7.36438 23.6803 8.55084C21.2388 9.7373 19.1802 11.5867 17.7401 13.8878C16.2999 16.1889 15.5361 18.8487 15.5361 21.5633C15.5361 24.2779 16.2999 26.9377 17.7401 29.2388C19.1802 31.5398 21.2388 33.3893 23.6803 34.5757C26.1219 35.7622 28.848 36.2378 31.5471 35.9481C34.2462 35.6585 36.8094 34.6154 38.9437 32.9379C37.2175 31.5867 35.8223 29.8593 34.8646 27.8875C33.9068 25.9156 33.4116 23.7512 33.4168 21.559V21.5676Z" fill="#E51B24"/>
<path d="M60.974 30.5338V30.0632H61.1622V29.9691H60.6831V30.0632H60.8884V30.5338H60.974ZM61.898 30.5338V29.9691H61.744L61.5814 30.3541L61.4189 29.9691H61.2734V30.5338H61.3761V30.106L61.5387 30.4653H61.6413L61.8124 30.106V30.5338H61.898Z" fill="white"/>
<path d="M62.3516 21.5676C62.3504 24.2827 61.5857 26.9428 60.1447 29.244C58.7037 31.5452 56.6446 33.3948 54.2025 34.5815C51.7605 35.7682 49.0339 36.2441 46.3342 35.955C43.6344 35.6659 41.0705 34.6233 38.9351 32.9464C40.43 31.7706 41.6785 30.3116 42.6093 28.653C43.5402 26.9943 44.135 25.1685 44.3598 23.2799C44.5847 21.3913 44.4352 19.4768 43.9198 17.646C43.4044 15.8152 42.5333 14.1039 41.3563 12.6099C40.6461 11.7114 39.8335 10.8989 38.9351 10.1887C41.0705 8.51176 43.6344 7.46921 46.3342 7.18009C49.0339 6.89097 51.7605 7.36694 54.2025 8.55363C56.6446 9.74032 58.7037 11.5899 60.1447 13.8911C61.5857 16.1923 62.3504 18.8524 62.3516 21.5676Z" fill="#F99F1C"/>
</svg>
