<svg width="77" height="50" viewBox="0 0 77 50" fill="none" xmlns="http://www.w3.org/2000/svg">
<rect width="77" height="50" rx="6" fill="url(#paint0_linear_487_1369)"/>
<path d="M32.02 16.3143L24.771 33.6018H20.0563L16.4809 19.8111C16.4472 19.4896 16.332 19.182 16.1464 18.9173C15.9608 18.6527 15.7109 18.4397 15.4201 18.2984C14.0159 17.62 12.5304 17.1248 11 16.8251L11.0982 16.3143H18.7008C19.1997 16.3117 19.6829 16.489 20.0618 16.8137C20.4406 17.1385 20.6898 17.5888 20.7635 18.0823L22.6494 28.0816L27.3052 16.3143L32.02 16.3143ZM50.5451 27.9637C50.5648 23.4061 44.2391 23.1507 44.2784 21.1076C44.298 20.479 44.8874 19.8307 46.1839 19.6539C47.693 19.5069 49.2138 19.7716 50.5844 20.4201L51.3702 16.7661C50.0324 16.2628 48.6152 16.0034 47.1858 16C42.7657 16 39.6618 18.3574 39.6225 21.7167C39.6029 24.2115 41.8424 25.5867 43.5319 26.4314C45.2803 27.2761 45.85 27.8262 45.85 28.5727C45.8303 29.7318 44.4552 30.2425 43.1783 30.2622C41.5764 30.3015 39.9919 29.9223 38.5814 29.1621L37.7759 32.9535C39.3612 33.5665 41.0465 33.8795 42.7461 33.8768C47.4412 33.8768 50.5254 31.5391 50.5451 27.9637V27.9637ZM62.1945 33.6018H66.3199L62.7053 16.3143H58.8941C58.4847 16.3099 58.0836 16.4295 57.7435 16.6574C57.4034 16.8853 57.1402 17.2109 56.9886 17.5912L50.2898 33.6018H54.9849L55.9082 31.0283H61.6445L62.1945 33.6018ZM57.2243 27.4726L59.5817 20.9898L60.9372 27.4726H57.2243ZM38.4046 16.3143L34.7113 33.6018H30.2323L33.9255 16.3143H38.4046Z" fill="url(#paint1_linear_487_1369)"/>
<defs>
<linearGradient id="paint0_linear_487_1369" x1="39" y1="25" x2="-0.000224879" y2="49.9997" gradientUnits="userSpaceOnUse">
<stop stop-color="white"/>
<stop offset="1" stop-color="#E6E6E6"/>
</linearGradient>
<linearGradient id="paint1_linear_487_1369" x1="16.736" y1="33.3858" x2="62.5137" y2="15.8278" gradientUnits="userSpaceOnUse">
<stop stop-color="#1D2C50"/>
<stop offset="1" stop-color="#1B3F80"/>
</linearGradient>
</defs>
</svg>
