<svg width="79" height="18" viewBox="0 0 79 18" fill="none" xmlns="http://www.w3.org/2000/svg">
<path d="M6.4931 13.7712C5.9869 13.8584 5.53742 13.9021 5.16214 13.9021C4.28065 13.9021 3.5999 13.6097 3.13297 13.0337C2.66168 12.4533 2.42167 11.5587 2.42167 10.3761C2.42167 9.38555 2.58313 8.39933 2.90168 7.44802C3.22024 6.50107 3.71335 5.70686 4.37229 5.09156C5.02249 4.48499 5.83416 4.17516 6.78547 4.17516C7.18258 4.17516 7.6146 4.22753 8.0728 4.32353C8.52663 4.4239 8.90628 4.55045 9.20302 4.69882L9.33393 4.76428L9.69613 2.60856L9.62194 2.57365C9.28157 2.41655 8.87573 2.29873 8.40881 2.22018C7.94624 2.14163 7.48368 2.10236 7.03421 2.10236C5.60288 2.10236 4.33738 2.50383 3.27697 3.29804C2.22093 4.08789 1.40054 5.14829 0.84197 6.43998C0.283403 7.7273 -0.000244141 9.12372 -0.000244141 10.5856C-0.000244141 12.3529 0.423043 13.7057 1.25217 14.609C2.08565 15.5123 3.28134 15.9749 4.81303 15.9749C5.22323 15.9749 5.67707 15.94 6.15709 15.8702C6.6371 15.8003 7.07785 15.7043 7.46186 15.5909L7.52732 15.5734L7.9157 13.3872L7.73678 13.457C7.41822 13.5748 6.9993 13.6839 6.4931 13.7712Z" fill="black"/>
<path d="M14.2345 2.4122L8.05103 15.7436H10.3944L12.0003 12.2657H16.0979L16.4819 15.7436H18.8427L17.4027 2.40784H14.2345V2.4122ZM12.7901 10.3107L15.3648 4.79047H15.3909L15.9975 10.3107H12.7901Z" fill="black"/>
<path d="M28.0633 2.65223C27.4699 2.35549 26.7716 2.18093 25.9818 2.13293L26.3091 0.195404H24.7294L24.4021 2.19839C23.3722 2.36421 22.5169 2.77005 21.858 3.41153C21.1772 4.07483 20.8325 4.92141 20.8325 5.92944C20.8325 6.50547 20.946 7.02912 21.1685 7.48732C21.3867 7.94116 21.6573 8.33826 21.9715 8.66118C22.2769 8.97974 22.6871 9.35503 23.1846 9.77832C23.7868 10.2802 24.2406 10.7253 24.5374 11.1006C24.821 11.4627 24.965 11.8773 24.965 12.3355C24.965 12.8679 24.7861 13.2606 24.4239 13.5399C24.0574 13.8236 23.5861 13.9676 23.0275 13.9676C22.5213 13.9676 21.9584 13.8628 21.3605 13.6577C20.7627 13.4526 20.2172 13.1777 19.7459 12.8417L19.6019 12.7413L19.2354 14.9713L19.2964 15.0105C19.6325 15.2331 20.0383 15.4294 20.5052 15.5953C20.9372 15.7524 21.3867 15.8571 21.8493 15.9138L21.522 17.9168H23.0799L23.4072 15.9575C24.5505 15.8396 25.4887 15.4338 26.2 14.7487C26.9331 14.0418 27.304 13.1428 27.304 12.0693C27.304 11.4802 27.1862 10.9478 26.9593 10.4809C26.7324 10.0227 26.4574 9.61686 26.1389 9.27648C25.8291 8.94483 25.4101 8.55209 24.8952 8.10262C24.3061 7.60078 23.8653 7.1644 23.5817 6.80657C23.3111 6.46619 23.1759 6.07781 23.1759 5.65889C23.1759 5.17887 23.3504 4.81667 23.717 4.54175C24.0835 4.26247 24.5854 4.12283 25.2094 4.12283C25.9556 4.12283 26.776 4.33229 27.6488 4.74249L27.7797 4.80358L28.1419 2.6915L28.0633 2.65223Z" fill="black"/>
<path d="M37.1183 2.41223L36.1801 7.9499H31.489L32.4228 2.41223H30.062L27.8059 15.7437H30.1711L31.1442 9.94852H35.8571L34.884 15.7437H37.2448L39.4791 2.41223H37.1183Z" fill="black"/>
<path d="M48.2765 11.3537C48.2765 10.6598 48.1194 10.0707 47.8096 9.59942C47.5172 9.15867 47.0983 8.84011 46.5572 8.64811C47.251 8.31209 47.8052 7.82335 48.2023 7.19496C48.6212 6.53602 48.8307 5.82036 48.8307 5.06106C48.8307 4.21884 48.5558 3.54245 48.0103 3.05807C47.4692 2.57805 46.7099 2.33368 45.7586 2.33368H40.9802L38.7241 15.7437H43.6116C44.5454 15.7437 45.3746 15.5386 46.0771 15.1371C46.7797 14.7356 47.3252 14.1901 47.7048 13.5181C48.0845 12.8505 48.2765 12.1217 48.2765 11.3537ZM45.3222 13.1952C44.8945 13.6883 44.2749 13.9414 43.4807 13.9414H41.373L42.0843 9.7216H44.1527C45.3789 9.7216 45.9768 10.2627 45.9768 11.3711C45.9724 12.0824 45.7542 12.6934 45.3222 13.1952ZM45.8982 7.33896C45.4837 7.78407 44.8771 8.01099 44.096 8.01099H42.3679L43.0007 4.13593H44.9731C46.0204 4.13593 46.5266 4.63777 46.5266 5.67199C46.5266 6.33093 46.3171 6.88949 45.8982 7.33896Z" fill="black"/>
<path d="M53.7575 2.41223L47.574 15.748H49.9173L51.5232 12.2701H55.6208L56.0048 15.748H58.3657L56.9256 2.41223H53.7575ZM52.3131 10.3107L54.8877 4.79051H54.9139L55.5205 10.3107H52.3131Z" fill="black"/>
<path d="M68.2889 2.57365C67.9486 2.41655 67.5427 2.29873 67.0758 2.22018C66.6132 2.14163 66.1507 2.10236 65.7012 2.10236C64.2699 2.10236 63.0044 2.50383 61.944 3.29804C60.8879 4.08789 60.0675 5.14829 59.509 6.43998C58.9504 7.7273 58.6667 9.12372 58.6667 10.5856C58.6667 12.3529 59.09 13.7057 59.9192 14.609C60.7526 15.5123 61.9483 15.9749 63.48 15.9749C63.8902 15.9749 64.3441 15.94 64.8241 15.8702C65.1601 15.8222 65.4743 15.7611 65.7667 15.6869L66.1245 17.6113L67.7216 13.841L64.9114 11.2969L65.387 13.7275C65.3085 13.7406 65.2343 13.7581 65.1557 13.7712C64.6495 13.8584 64.2 13.9021 63.8248 13.9021C62.9433 13.9021 62.2625 13.6097 61.7956 13.0337C61.3243 12.4533 61.0843 11.5587 61.0843 10.3761C61.0843 9.38555 61.2458 8.39933 61.5643 7.44802C61.8829 6.50107 62.376 5.70686 63.0349 5.09156C63.6851 4.48499 64.4968 4.17516 65.4481 4.17516C65.8452 4.17516 66.2772 4.22753 66.7354 4.32353C67.1893 4.4239 67.5689 4.55045 67.8657 4.69882L67.9966 4.76428L68.3588 2.60856L68.2889 2.57365Z" fill="black"/>
<path d="M78.7665 2.41223H76.2267L70.8331 8.65247L71.8891 2.41223H69.5283L67.6606 13.4701L67.9879 13.7712L67.3639 15.3029L67.2722 15.7437H69.6374L70.3531 11.5195L72.1379 9.37686H72.1597L74.2063 15.7437H76.65L74.215 7.78408L78.7665 2.41223Z" fill="black"/>
</svg>
