<?xml version="1.0" encoding="UTF-8" standalone="no"?>
<!-- Generator: Adobe Illustrator 27.7.0, SVG Export Plug-In . SVG Version: 6.00 Build 0)  -->

<svg
   version="1.1"
   id="Capa_1"
   x="0px"
   y="0px"
   viewBox="0 0 451.44145 48.740003"
   xml:space="preserve"
   sodipodi:docname="PAY (1)(1).svg"
   width="451.44147"
   height="48.740002"
   inkscape:version="1.2.2 (732a01da63, 2022-12-09, custom)"
   xmlns:inkscape="http://www.inkscape.org/namespaces/inkscape"
   xmlns:sodipodi="http://sodipodi.sourceforge.net/DTD/sodipodi-0.dtd"
   xmlns="http://www.w3.org/2000/svg"
   xmlns:svg="http://www.w3.org/2000/svg"><defs
   id="defs90" /><sodipodi:namedview
   id="namedview88"
   pagecolor="#ffffff"
   bordercolor="#666666"
   borderopacity="1.0"
   inkscape:showpageshadow="2"
   inkscape:pageopacity="0.0"
   inkscape:pagecheckerboard="0"
   inkscape:deskcolor="#d1d1d1"
   showgrid="false"
   inkscape:zoom="3.1615374"
   inkscape:cx="221.09496"
   inkscape:cy="22.931881"
   inkscape:window-width="2488"
   inkscape:window-height="1376"
   inkscape:window-x="72"
   inkscape:window-y="27"
   inkscape:window-maximized="1"
   inkscape:current-layer="Capa_1" />
<style
   type="text/css"
   id="style25">
	.st0{fill:#D63732;}
	.st1{fill:none;}
</style>
<g
   id="g51"
   transform="translate(-76.55,-72.169998)">
	<g
   id="g49">
		
			<rect
   x="410.48999"
   y="81.290001"
   transform="matrix(0.7068,-0.7075,0.7075,0.7068,63.9247,321.9815)"
   class="st0"
   width="19.74"
   height="5.1900001"
   id="rect27" />
		<rect
   x="400.28"
   y="72.169998"
   class="st0"
   width="5.1700001"
   height="14.97"
   id="rect29" />
		<path
   class="st0"
   d="m 402.16,91.81 c -3.28,0 -6.11,1.17 -8.44,3.56 -2.39,2.39 -3.56,5.28 -3.56,8.62 0,3.34 1.16,6.23 3.56,8.56 2.33,2.4 5.17,3.62 8.44,3.62 3.28,0 6.16,-1.22 8.55,-3.62 2.34,-2.34 3.5,-5.23 3.5,-8.56 0,-3.34 -1.16,-6.23 -3.5,-8.62 -2.38,-2.39 -5.27,-3.56 -8.55,-3.56 m 4.5,16.69 c -1.22,1.28 -2.72,1.89 -4.5,1.89 -1.72,0 -3.22,-0.61 -4.44,-1.89 -1.23,-1.28 -1.89,-2.78 -1.89,-4.51 0,-1.83 0.67,-3.34 1.89,-4.56 1.22,-1.28 2.72,-1.89 4.44,-1.84 1.78,-0.05 3.28,0.56 4.55,1.84 1.17,1.22 1.78,2.73 1.84,4.56 -0.06,1.72 -0.67,3.23 -1.89,4.51"
   id="path31" />
		<path
   class="st0"
   d="m 326.12,91.59 c 1.78,0 3.39,0.5 4.94,1.5 1.39,0.95 2.5,2.28 3.28,3.84 h 6.05 c -0.89,-3.22 -2.61,-5.9 -5.22,-7.95 -2.66,-2.12 -5.72,-3.17 -9.05,-3.12 -4.16,-0.05 -7.61,1.39 -10.5,4.39 -2.94,2.95 -4.38,6.45 -4.38,10.62 0,4.12 1.44,7.74 4.38,10.68 2.89,2.89 6.34,4.34 10.5,4.34 3.34,0 6.39,-1 9.05,-3.06 2.61,-2.11 4.34,-4.72 5.22,-7.95 h -6.05 c -0.78,1.56 -1.89,2.83 -3.28,3.84 -1.56,0.95 -3.17,1.45 -4.94,1.45 -2.55,0 -4.72,-0.95 -6.5,-2.73 -1.83,-1.83 -2.72,-4 -2.66,-6.56 -0.05,-2.55 0.84,-4.73 2.66,-6.56 1.78,-1.79 3.94,-2.73 6.5,-2.73"
   id="path33" />
		<path
   class="st0"
   d="m 369.5,93.25 c -2,-1.05 -4.22,-1.56 -6.72,-1.5 -3.89,-0.06 -6.61,1 -8.17,3.06 -1,1.28 -1.5,2.95 -1.67,5.07 h 5.78 c 0.11,-1 0.45,-1.67 0.83,-2.11 0.61,-0.78 1.61,-1.17 3.06,-1.12 1.22,-0.06 2.17,0.17 2.83,0.56 0.66,0.33 0.94,1 1,1.95 0,0.78 -0.45,1.39 -1.33,1.78 l -4.45,0.72 c -2.05,0.28 -3.72,0.78 -5,1.51 -2.16,1.28 -3.22,3.34 -3.16,6.29 -0.06,2.05 0.61,3.72 1.94,4.95 1.17,1 2.78,1.56 4.73,1.61 3.16,-0.06 5.66,-0.84 7.44,-2.4 v 2.4 h 5.78 V 98.98 c 0,-2.78 -1.01,-4.72 -2.89,-5.73 m -3.17,13.3 c 0,2 -0.56,3.39 -1.61,4.17 -1.11,0.78 -2.28,1.17 -3.61,1.17 -0.83,0 -1.5,-0.22 -2.06,-0.66 -0.55,-0.5 -0.83,-1.22 -0.83,-2.28 0,-1.17 0.45,-2.01 1.39,-2.62 0.56,-0.33 1.5,-0.61 2.72,-0.78 l 2.89,-0.73 1.11,-0.61 z"
   id="path35" />
		<rect
   x="343.34"
   y="85.860001"
   class="st0"
   width="5.7800002"
   height="30.15"
   id="rect37" />
		<path
   class="st0"
   d="m 388.11,91.97 -2.23,0.61 c -1.55,0.61 -2.94,1.67 -4.11,3.28 v -2.95 l -5.5,-0.05 V 116 H 382 v -11.07 c 0,-1.9 0.23,-3.23 0.73,-4.07 0.38,-0.89 1.11,-1.61 2,-2.22 1,-0.67 2.05,-1 3.17,-1 l 1.77,0.11 -0.05,-5.9 z"
   id="path39" />
		<polyline
   class="st0"
   points="433.05,100.01 433.05,98.49 417.77,98.49 417.77,103.66 433.05,103.66 433.05,100.02   "
   id="polyline41" />
		<path
   d="M 489.81,115 H 471.6 c -1.8,0 -3,-1.87 -2.25,-3.51 l 3.76,-8.22 c 0.4,-0.88 1.28,-1.45 2.25,-1.45 h 15.41 c 0.54,0 1.03,-0.31 1.25,-0.8 l 0.31,-0.67 c 0.24,-0.53 -0.15,-1.13 -0.73,-1.13 h -15.41 c -0.58,0 -0.97,-0.6 -0.73,-1.13 l 1.23,-2.67 c 0.4,-0.88 1.28,-1.45 2.25,-1.45 h 20.83 c 0.58,0 0.97,0.6 0.73,1.13 l -8.44,18.45 c -0.4,0.89 -1.28,1.45 -2.25,1.45 m -12.65,-5.25 h 9.99 c 0.54,0 1.02,-0.31 1.25,-0.8 l 0.34,-0.74 c 0.24,-0.53 -0.15,-1.13 -0.73,-1.13 h -10.35 c -0.31,0 -0.6,0.18 -0.73,0.47 l -0.49,1.07 c -0.25,0.53 0.13,1.13 0.72,1.13"
   id="path43" />
		<path
   d="m 469.99,93.98 c 1.15,0 1.91,1.19 1.42,2.23 l -3,6.43 c -1.77,3.86 -5.62,6.34 -9.87,6.34 h -10.47 c -0.26,0 -0.5,0.15 -0.6,0.39 l -1.92,4.2 c -0.4,0.88 -1.28,1.45 -2.25,1.45 h -3.89 c -0.12,0 -0.21,-0.13 -0.16,-0.24 l 8.79,-19.27 c 0.43,-0.93 1.36,-1.53 2.39,-1.53 z m -19.67,9.75 h 9.05 c 1.69,0 3.22,-0.99 3.92,-2.52 l 0.39,-0.85 c 0.24,-0.53 -0.15,-1.13 -0.73,-1.13 h -10.33 c -0.31,0 -0.6,0.18 -0.73,0.47 l -1.73,3.79 c -0.04,0.11 0.04,0.24 0.16,0.24"
   id="path45" />
		<path
   d="m 527.19,93.97 h -5.89 c -0.5,0 -0.99,0.15 -1.4,0.44 l -7.47,5.13 -2.97,-4.46 c -0.46,-0.69 -1.23,-1.1 -2.05,-1.1 l -3.51,-0.02 c -0.64,0 -1.02,0.71 -0.67,1.24 l 5.95,8.93 -4.88,10.66 c -0.05,0.11 0.03,0.24 0.16,0.24 h 3.92 c 0.97,0 1.85,-0.56 2.25,-1.45 l 4.31,-9.35 12.71,-8.8 c 0.64,-0.45 0.32,-1.46 -0.46,-1.46"
   id="path47" />
	</g>
</g>
<g
   id="g77"
   transform="translate(-76.55,-72.169998)">
	<path
   class="st1"
   d="m 179.61,89.34 h -4.52 l -1.45,8.88 h 3.96 c 1.79,0 3.18,-0.52 4.13,-1.54 0.96,-1.03 1.45,-2.31 1.45,-3.82 -0.01,-2.37 -1.17,-3.52 -3.57,-3.52 z"
   id="path53" />
	<polygon
   class="st1"
   points="203.78,103.48 202.39,90.83 202.34,90.83 196.43,103.48 "
   id="polygon55" />
	<path
   class="st1"
   d="m 177.73,102.13 h -4.74 l -1.63,9.67 h 4.83 c 1.81,0 3.23,-0.58 4.22,-1.71 0.99,-1.15 1.49,-2.55 1.49,-4.18 0,-2.54 -1.36,-3.78 -4.17,-3.78 z"
   id="path57" />
	<polygon
   class="st1"
   points="113.21,103.48 111.82,90.83 111.76,90.83 105.86,103.48 "
   id="polygon59" />
	<path
   d="m 91.43,111.41 c -1.16,0.2 -2.19,0.3 -3.05,0.3 -2.02,0 -3.58,-0.67 -4.65,-1.99 -1.08,-1.33 -1.63,-3.38 -1.63,-6.09 0,-2.27 0.37,-4.53 1.1,-6.71 0.73,-2.17 1.86,-3.99 3.37,-5.4 1.49,-1.39 3.35,-2.1 5.53,-2.1 0.91,0 1.9,0.12 2.95,0.34 1.04,0.23 1.91,0.52 2.59,0.86 l 0.3,0.15 0.83,-4.94 -0.17,-0.08 c -0.78,-0.36 -1.71,-0.63 -2.78,-0.81 -1.06,-0.18 -2.12,-0.27 -3.15,-0.27 -3.28,0 -6.18,0.92 -8.61,2.74 -2.42,1.81 -4.3,4.24 -5.58,7.2 -1.28,2.95 -1.93,6.15 -1.93,9.5 0,4.05 0.97,7.15 2.87,9.22 1.91,2.07 4.65,3.13 8.16,3.13 0.94,0 1.98,-0.08 3.08,-0.24 1.1,-0.16 2.11,-0.38 2.99,-0.64 l 0.15,-0.04 0.89,-5.01 -0.41,0.16 c -0.73,0.27 -1.69,0.52 -2.85,0.72 z"
   id="path61" />
	<path
   d="M 109.17,85.38 95,115.93 h 5.37 l 3.68,-7.97 h 9.39 l 0.88,7.97 h 5.41 l -3.3,-30.56 h -7.26 z m -3.31,18.1 5.9,-12.65 h 0.06 l 1.39,12.65 z"
   id="path63" />
	<path
   d="m 140.86,85.93 c -1.36,-0.68 -2.96,-1.08 -4.77,-1.19 l 0.75,-4.44 h -3.62 l -0.75,4.59 c -2.36,0.38 -4.32,1.31 -5.83,2.78 -1.56,1.52 -2.35,3.46 -2.35,5.77 0,1.32 0.26,2.52 0.77,3.57 0.5,1.04 1.12,1.95 1.84,2.69 0.7,0.73 1.64,1.59 2.78,2.56 1.38,1.15 2.42,2.17 3.1,3.03 0.65,0.83 0.98,1.78 0.98,2.83 0,1.22 -0.41,2.12 -1.24,2.76 -0.84,0.65 -1.92,0.98 -3.2,0.98 -1.16,0 -2.45,-0.24 -3.82,-0.71 -1.37,-0.47 -2.62,-1.1 -3.7,-1.87 l -0.33,-0.23 -0.84,5.11 0.14,0.09 c 0.77,0.51 1.7,0.96 2.77,1.34 0.99,0.36 2.02,0.6 3.08,0.73 l -0.75,4.59 h 3.57 l 0.75,-4.49 c 2.62,-0.27 4.77,-1.2 6.4,-2.77 1.68,-1.62 2.53,-3.68 2.53,-6.14 0,-1.35 -0.27,-2.57 -0.79,-3.64 -0.52,-1.05 -1.15,-1.98 -1.88,-2.76 -0.71,-0.76 -1.67,-1.66 -2.85,-2.69 -1.35,-1.15 -2.36,-2.15 -3.01,-2.97 -0.62,-0.78 -0.93,-1.67 -0.93,-2.63 0,-1.1 0.4,-1.93 1.24,-2.56 0.84,-0.64 1.99,-0.96 3.42,-0.96 1.71,0 3.59,0.48 5.59,1.42 l 0.3,0.14 0.83,-4.84 z"
   id="path65" />
	<polygon
   points="148.71,98.07 150.85,85.38 145.44,85.38 140.27,115.93 145.69,115.93 147.92,102.65 158.72,102.65 156.49,115.93 161.9,115.93 167.02,85.38 161.61,85.38 159.46,98.07 "
   id="polygon67" />
	<path
   d="m 187.18,105.87 c 0,-1.59 -0.36,-2.94 -1.07,-4.02 -0.67,-1.01 -1.63,-1.74 -2.87,-2.18 1.59,-0.77 2.86,-1.89 3.77,-3.33 0.96,-1.51 1.44,-3.15 1.44,-4.89 0,-1.93 -0.63,-3.48 -1.88,-4.59 -1.24,-1.1 -2.98,-1.66 -5.16,-1.66 h -10.95 l -5.17,30.73 h 11.2 c 2.14,0 4.04,-0.47 5.65,-1.39 1.61,-0.92 2.86,-2.17 3.73,-3.71 0.87,-1.53 1.31,-3.2 1.31,-4.96 z m -6.77,4.22 c -0.98,1.13 -2.4,1.71 -4.22,1.71 h -4.83 l 1.63,-9.67 h 4.74 c 2.81,0 4.18,1.24 4.18,3.78 -0.01,1.63 -0.51,3.03 -1.5,4.18 z m 1.32,-13.42 c -0.95,1.02 -2.34,1.54 -4.13,1.54 h -3.96 l 1.45,-8.88 h 4.52 c 2.4,0 3.56,1.15 3.56,3.52 0,1.51 -0.48,2.79 -1.44,3.82 z"
   id="path69" />
	<path
   d="m 199.74,85.38 -14.17,30.56 h 5.37 l 3.68,-7.97 h 9.39 l 0.88,7.97 h 5.41 L 207,85.38 Z m -3.31,18.1 5.9,-12.65 h 0.06 l 1.39,12.65 z"
   id="path71" />
	<path
   d="m 233.04,85.75 c -0.78,-0.36 -1.71,-0.63 -2.78,-0.81 -1.06,-0.18 -2.12,-0.27 -3.15,-0.27 -3.28,0 -6.18,0.92 -8.61,2.74 -2.42,1.81 -4.3,4.24 -5.58,7.2 -1.28,2.95 -1.93,6.15 -1.93,9.5 0,4.05 0.97,7.15 2.87,9.22 1.91,2.07 4.65,3.13 8.16,3.13 0.94,0 1.98,-0.08 3.08,-0.24 0.77,-0.11 1.49,-0.25 2.16,-0.42 l 0.82,4.41 3.66,-8.64 -6.44,-5.83 1.09,5.57 c -0.18,0.03 -0.35,0.07 -0.53,0.1 -1.16,0.2 -2.19,0.3 -3.05,0.3 -2.02,0 -3.58,-0.67 -4.65,-1.99 -1.08,-1.33 -1.63,-3.38 -1.63,-6.09 0,-2.27 0.37,-4.53 1.1,-6.71 0.73,-2.17 1.86,-3.99 3.37,-5.4 1.49,-1.39 3.35,-2.1 5.53,-2.1 0.91,0 1.9,0.12 2.95,0.34 1.04,0.23 1.91,0.52 2.59,0.86 l 0.3,0.15 0.83,-4.94 z"
   id="path73" />
	<polygon
   points="238.87,99.68 241.29,85.38 235.88,85.38 231.6,110.72 232.35,111.41 230.92,114.92 230.71,115.93 236.13,115.93 237.77,106.25 241.86,101.34 241.91,101.34 246.6,115.93 252.2,115.93 246.62,97.69 257.05,85.38 251.23,85.38 "
   id="polygon75" />
</g>
<g
   id="g85"
   transform="translate(-76.55,-72.169998)">
	<path
   d="m 270.93,103.48 c -0.56,-0.12 -1.08,-0.18 -1.55,-0.18 -1.24,0 -2.18,0.45 -2.82,1.34 -0.64,0.9 -0.96,2.18 -0.96,3.86 0,1.69 0.33,3 0.98,3.9 0.65,0.91 1.63,1.36 2.93,1.36 0.45,0 0.95,-0.06 1.48,-0.18 0.53,-0.12 0.99,-0.28 1.39,-0.47 v 2.78 c -0.99,0.39 -2.03,0.59 -3.13,0.59 -2.23,0 -3.97,-0.72 -5.25,-2.16 -1.27,-1.44 -1.91,-3.37 -1.91,-5.79 0,-2.42 0.63,-4.35 1.89,-5.79 1.26,-1.44 3.02,-2.16 5.29,-2.16 0.98,0 2.02,0.17 3.1,0.5 v 2.84 c -0.4,-0.18 -0.88,-0.33 -1.44,-0.44 z"
   id="path79" />
	<path
   d="m 274.6,114.32 c -1.23,-1.44 -1.85,-3.37 -1.85,-5.79 0,-2.42 0.62,-4.35 1.85,-5.79 1.23,-1.44 2.95,-2.16 5.16,-2.16 2.21,0 3.92,0.72 5.14,2.16 1.22,1.44 1.83,3.37 1.83,5.79 0,2.42 -0.61,4.35 -1.83,5.79 -1.22,1.44 -2.94,2.16 -5.14,2.16 -2.21,0 -3.93,-0.72 -5.16,-2.16 z m 2.46,-1.89 c 0.57,0.93 1.46,1.39 2.66,1.39 1.22,0 2.12,-0.46 2.69,-1.39 0.57,-0.93 0.86,-2.23 0.86,-3.9 0,-1.67 -0.29,-2.97 -0.87,-3.9 -0.58,-0.93 -1.47,-1.39 -2.67,-1.39 -1.2,0 -2.09,0.46 -2.66,1.39 -0.57,0.93 -0.86,2.23 -0.86,3.9 0,1.67 0.28,2.97 0.85,3.9 z"
   id="path81" />
	<path
   d="m 291.22,100.94 0.33,1.86 h 0.3 c 0.61,-0.65 1.33,-1.18 2.16,-1.59 0.83,-0.41 1.7,-0.62 2.63,-0.62 1.34,0 2.41,0.42 3.22,1.27 0.81,0.85 1.21,1.98 1.21,3.4 v 10.87 h -3.4 v -9.9 c 0,-0.83 -0.23,-1.48 -0.68,-1.95 -0.45,-0.47 -1.07,-0.71 -1.86,-0.71 -0.57,0 -1.14,0.12 -1.7,0.37 -0.56,0.25 -1.07,0.58 -1.52,0.99 v 11.2 h -3.4 v -11.41 l -0.53,-3.78 z"
   id="path83" />
</g>
</svg>
