<svg width="30" height="21" viewBox="0 0 30 21" fill="none" xmlns="http://www.w3.org/2000/svg">
<path d="M5.93324 3.24061C5.63646 3.17215 5.35109 3.12651 5.07713 3.12651C4.52923 3.12651 4.08405 3.29766 3.75302 3.63998C3.422 3.98229 3.17087 4.39307 3.0339 4.8609C2.89692 5.32872 2.81702 5.78514 2.81702 6.23015C2.81702 7.33697 3.30785 7.89608 4.28952 7.89608C4.52923 7.89608 4.82601 7.87326 5.15704 7.8162C5.48806 7.75915 5.76202 7.69069 5.96748 7.61082L5.61363 9.65329C5.08855 9.80163 4.5064 9.87009 3.86717 9.87009C2.75994 9.87009 1.90384 9.57341 1.31027 8.99148C0.716705 8.40955 0.419922 7.56517 0.419922 6.45836C0.419922 5.55693 0.613973 4.68974 1.00207 3.8796C1.39017 3.06945 1.96091 2.40765 2.70287 1.90559C3.44483 1.40353 4.31235 1.1525 5.30543 1.1525C5.95607 1.1525 6.52681 1.25519 7.02905 1.47199L6.6752 3.51446C6.48115 3.41177 6.23002 3.32048 5.94465 3.24061H5.93324Z" fill="black"/>
<path d="M11.5157 9.73291L11.3788 8.10121H9.08441L8.3767 9.73291H6.09375L9.78071 1.34622H13.1366L13.8672 9.73291H11.5043H11.5157ZM11.3445 6.25272L11.1048 3.5028H10.9793L9.76929 6.25272H11.3445Z" fill="black"/>
<path d="M19.5625 3.05176e-05L19.3685 1.1639C19.8936 1.20954 20.3616 1.33505 20.7839 1.51762L20.4529 3.48022C20.1447 3.3547 19.8365 3.2406 19.5169 3.16073C19.2087 3.08086 18.9233 3.03521 18.695 3.03521C18.4325 3.03521 18.2156 3.08086 18.0444 3.18355C17.8731 3.28624 17.7932 3.44599 17.7932 3.65138C17.7932 3.85677 17.8731 4.02792 18.0215 4.18767C18.1813 4.33601 18.4211 4.51857 18.7407 4.74678C19.0831 4.9864 19.3571 5.19179 19.5739 5.38577C19.7908 5.57974 19.9735 5.80795 20.1218 6.10463C20.2817 6.4013 20.3501 6.74361 20.3501 7.14298C20.3501 7.87325 20.099 8.478 19.6082 8.95724C19.1174 9.43648 18.4553 9.73315 17.622 9.83585L17.428 11.0225H16.0011L16.218 9.81303C15.5103 9.72174 14.9396 9.562 14.4944 9.33379L14.8597 7.24567C15.2249 7.46247 15.6359 7.64504 16.0924 7.78196C16.549 7.91889 16.9257 7.98735 17.2339 7.98735C17.4736 7.98735 17.6563 7.94171 17.8047 7.83902C17.9416 7.73632 18.0215 7.5994 18.0215 7.39401C18.0215 7.17721 17.9416 7.00605 17.7932 6.84631C17.6334 6.69797 17.3937 6.50399 17.0627 6.27578C16.7317 6.05898 16.4577 5.8536 16.2408 5.67103C16.024 5.48846 15.8413 5.24884 15.6815 4.96358C15.5217 4.67832 15.4532 4.3246 15.4532 3.93664C15.4532 3.25201 15.6815 2.67008 16.1267 2.20225C16.5719 1.73442 17.1768 1.41493 17.9188 1.24377L18.1357 3.05176e-05H19.5625Z" fill="black"/>
<path d="M24.8703 1.34647L24.3109 4.51857H26.4113L26.9706 1.34647H29.322L27.8267 9.73315H25.4752L26.0574 6.42412H23.9685L23.3863 9.73315H21.0349L22.5188 1.34647H24.8703Z" fill="black"/>
<path d="M1.47139 11.146H5.21763C5.86603 11.146 6.38085 11.2918 6.76242 11.5838C7.14333 11.8758 7.33411 12.2973 7.33411 12.8489C7.33411 13.3194 7.19623 13.7469 6.92047 14.1321C6.64471 14.5173 6.28794 14.8152 5.85016 15.0262V15.0993C6.20693 15.213 6.48038 15.4074 6.67116 15.6832C6.86162 15.9589 6.95684 16.3117 6.95684 16.7413C6.95684 17.2442 6.82326 17.7104 6.55544 18.1399C6.28794 18.5697 5.91067 18.9103 5.42429 19.1616C4.9379 19.4132 4.37845 19.5385 3.74591 19.5385H0L1.47139 11.146ZM3.6001 17.9085C3.9324 17.9085 4.19989 17.797 4.40291 17.5738C4.6056 17.351 4.70711 17.0894 4.70711 16.7895C4.70711 16.5544 4.63602 16.3742 4.49417 16.2483C4.35232 16.1226 4.15559 16.0598 3.9043 16.0598H2.89483L2.56649 17.9085H3.6001ZM4.01341 14.5272C4.35398 14.5272 4.62147 14.432 4.81622 14.2416C5.01064 14.0511 5.10819 13.814 5.10819 13.53C5.10819 13.0274 4.85293 12.7758 4.34174 12.7758H3.47809L3.16199 14.5272H4.01341Z" fill="black"/>
<path d="M11.7 19.5383L11.5664 17.9181H9.27994L8.57434 19.5383H6.2998L9.97298 11.1947H13.3175L14.0472 19.5383H11.7ZM11.5297 16.0692L11.2863 13.3354H11.1646L9.96042 16.0692H11.5297Z" fill="black"/>
<path d="M18.6705 15.891L19.0167 17.5839L19.0124 17.5882C18.9314 17.6047 18.8464 17.6203 18.7555 17.6348C18.4228 17.6877 18.1352 17.7139 17.8918 17.7139C16.9191 17.7139 16.4323 17.1627 16.4323 16.0596C16.4323 15.6218 16.5034 15.1679 16.6453 14.6973C16.7871 14.2272 17.0265 13.8218 17.3628 13.4812C17.6991 13.1406 18.1392 12.9704 18.6824 12.9704C18.9578 12.9704 19.2419 13.0067 19.5338 13.0798C19.8258 13.1529 20.0691 13.2422 20.2636 13.3473L20.6164 11.3161C20.1217 11.1055 19.55 11 18.9013 11C17.912 11 17.0483 11.2517 16.3107 11.7542C15.5727 12.2572 15.0092 12.9138 14.6201 13.7246C14.2309 14.5353 14.0361 15.3907 14.0361 16.2907C14.0361 17.3855 14.3321 18.2247 14.9239 18.8083C15.5158 19.3922 16.3632 19.6842 17.4659 19.6842C18.1064 19.6842 18.686 19.6111 19.2052 19.4653L19.2058 19.4623C19.2812 19.4435 19.3245 19.4309 19.3245 19.4309L19.7094 20.9701L20.8637 17.9688L18.6705 15.891Z" fill="black"/>
<path d="M28.0659 11.1947H25.6578L23.0431 14.65H22.9578L23.5781 11.1947H21.2427L20.2031 16.945L21.1924 17.9148L20.5916 19.5383H22.0944L22.4955 17.2892L23.3836 16.092H23.505L24.2956 19.5383H26.704L25.5606 14.45L28.0659 11.1947Z" fill="black"/>
</svg>
