<?xml version="1.0" encoding="utf-8"?>
<!-- Generator: Adobe Illustrator 24.1.0, SVG Export Plug-In . SVG Version: 6.00 Build 0)  -->
<svg version="1.1" id="Layer_1" xmlns="http://www.w3.org/2000/svg" xmlns:xlink="http://www.w3.org/1999/xlink" x="0px"
  y="0px"
  viewBox="0 0 180 130" style="enable-background:new 0 0 180 130;" xml:space="preserve">
<style type="text/css">
	.st0{fill:#E0DFDF;}
	.st1{fill:#F2F2F3;}
	.st2{fill:#EE3A29;}
	.st3{fill:#CCCCCB;}
	.st4{fill:none;stroke:#211915;stroke-width:2;stroke-linecap:round;stroke-linejoin:round;}
	.st5{fill:#FFFFFF;}
	.st6{fill:none;stroke:#211915;stroke-width:1.5;stroke-miterlimit:10;}
	.st7{fill:none;stroke:#211915;stroke-width:1.5;stroke-linecap:round;stroke-linejoin:round;}
	.st8{fill:none;stroke:#211915;stroke-width:3;stroke-linecap:round;stroke-linejoin:round;}
	.st9{fill:none;stroke:#211915;stroke-width:2;stroke-miterlimit:10;}
	.st10{fill:#EE3A29;stroke:#211915;stroke-width:2;stroke-miterlimit:10;}
	.st11{fill:#FFFFFF;stroke:#211915;stroke-width:2;stroke-miterlimit:10;}
</style>
  <g id="Group_14102" transform="translate(-1915.479 -708.419)">
	<g id="Group_3864" transform="translate(1915.479 708.419)">
		<g id="_2" transform="translate(0 0)">
			<path id="Path_4188" class="st0" d="M179.2,45.5c-2-9.9-11.6-16.3-21.5-14.4l-16.9,3.4c8.9-4.8,12.3-15.9,7.5-24.8
				c-3.8-7.1-11.8-10.9-19.7-9.3L15.8,23.5c-10,1.4-17,10.7-15.6,20.7c1.4,10,10.7,17,20.7,15.6c0.8-0.1,1.5-0.3,2.3-0.5l6.3-1.3
				c-8.3,5.7-10.5,17.1-4.7,25.5c2.9,4.2,7.4,7,12.5,7.8l-7.7,1.5c-10,1.3-17.1,10.5-15.8,20.6s10.5,17.1,20.6,15.8
				c0.7-0.1,1.5-0.2,2.2-0.4L156,105.6c9.9-2.1,16.2-11.8,14.2-21.7c-1.7-8.1-8.7-14.1-17-14.5l11.6-2.3
				C174.7,65.1,181.1,55.4,179.2,45.5z"/>
      <ellipse id="Ellipse_213" class="st1" cx="64.7" cy="64.7" rx="31.7" ry="31.7"/>
      <ellipse id="Ellipse_214" class="st2" cx="58.5" cy="105.9" rx="14.7" ry="14.7"/>
		</g>
	</g>
    <g id="Group_3867" transform="translate(1936.247 730.607)">
		<path id="Rectangle_1590" class="st3" d="M5.9,0h53.8c3.3,0,5.9,2.7,5.9,5.9v31.6c0,3.3-2.7,5.9-5.9,5.9H5.9
			c-3.3,0-5.9-2.7-5.9-5.9V5.9C0,2.7,2.7,0,5.9,0z"/>
      <line id="Line_345" class="st4" x1="15.4" y1="43.5" x2="13.5" y2="43.5"/>
      <path id="Path_4572" class="st4" d="M9.7,43.5H4.8c-2.6,0-4.8-2.1-4.8-4.8l0,0V4.8C0,2.1,2.1,0,4.8,0c0,0,0,0,0,0h56.2
			c2.6,0,4.8,2.1,4.8,4.8v33.9c0,2.6-2.1,4.8-4.8,4.8l0,0H21.2"/>
      <circle id="Ellipse_325" class="st5" cx="53.3" cy="12.2" r="4.8"/>
      <circle id="Ellipse_326" class="st6" cx="47.5" cy="12.2" r="4.3"/>
      <line id="Line_346" class="st7" x1="8.2" y1="31.4" x2="34.1" y2="31.4"/>
      <line id="Line_347" class="st7" x1="24.5" y1="36.2" x2="30.3" y2="36.2"/>
      <line id="Line_348" class="st7" x1="8.2" y1="36.2" x2="19.6" y2="36.2"/>
      <line id="Line_349" class="st4" x1="8.5" y1="25.1" x2="17.2" y2="25.1"/>
      <line id="Line_350" class="st4" x1="21.1" y1="25.1" x2="30.7" y2="25.1"/>
      <line id="Line_351" class="st4" x1="34.6" y1="25.1" x2="43.3" y2="25.1"/>
      <line id="Line_352" class="st4" x1="48.1" y1="25.1" x2="56.8" y2="25.1"/>
      <path id="Rectangle_1591" class="st7" d="M12.3,6.3h3c2.4,0,4.3,1.9,4.3,4.3v3c0,2.4-1.9,4.3-4.3,4.3h-3C10,17.9,8,15.9,8,13.6v-3
			C8,8.2,10,6.3,12.3,6.3z"/>
      <line id="Line_353" class="st6" x1="13.8" y1="6.8" x2="13.8" y2="17.4"/>
      <line id="Line_354" class="st6" x1="13.4" y1="10.1" x2="19.2" y2="10.1"/>
      <line id="Line_355" class="st6" x1="13.4" y1="14" x2="19.2" y2="14"/>
      <path id="Rectangle_1592" class="st5" d="M48.4,30.9h71.3c4.3,0,7.8,3.5,7.8,7.8v41.3c0,4.3-3.5,7.8-7.8,7.8H48.4
			c-4.3,0-7.8-3.5-7.8-7.8V38.7C40.6,34.4,44.1,30.9,48.4,30.9z"/>
      <line id="Line_356" class="st4" x1="60.4" y1="88.4" x2="59.4" y2="88.4"/>
      <path id="Path_4573" class="st4" d="M54.6,88.4h-7.2c-3.5,0-6.3-2.8-6.3-6.3c0,0,0,0,0,0V37.7c0-3.5,2.8-6.3,6.3-6.3h74.3
			c3.5,0,6.3,2.8,6.3,6.3V82c0,3.5-2.8,6.3-6.3,6.3c0,0,0,0,0,0H69.1"/>
      <line id="Line_357" class="st4" x1="51.2" y1="72.4" x2="85.8" y2="72.4"/>
      <line id="Line_358" class="st4" x1="73.2" y1="79.2" x2="80" y2="79.2"/>
      <line id="Line_359" class="st4" x1="51.2" y1="79.2" x2="66.5" y2="79.2"/>
      <line id="Line_360" class="st8" x1="51.5" y1="63.3" x2="63.1" y2="63.3"/>
      <line id="Line_361" class="st8" x1="68.9" y1="63.3" x2="81.4" y2="63.3"/>
      <line id="Line_362" class="st8" x1="86.3" y1="63.3" x2="98.8" y2="63.3"/>
      <line id="Line_363" class="st8" x1="103.7" y1="63.3" x2="116.2" y2="63.3"/>
      <path id="Rectangle_1593" class="st4" d="M56.8,39.6h4c3.2,0,5.7,2.6,5.7,5.7v4c0,3.2-2.6,5.7-5.7,5.7h-4c-3.2,0-5.7-2.6-5.7-5.7
			v-4C51,42.2,53.6,39.6,56.8,39.6z"/>
      <line id="Line_364" class="st9" x1="58.8" y1="39.6" x2="58.8" y2="54.9"/>
      <line id="Line_365" class="st9" x1="58.8" y1="44.4" x2="66.3" y2="44.4"/>
      <line id="Line_366" class="st9" x1="58.8" y1="50.1" x2="66.3" y2="50.1"/>
      <path id="Rectangle_1594" class="st3" d="M95.4,38.6h17.7c2,0,3.7,1.7,3.7,3.7v9c0,2-1.7,3.7-3.7,3.7H95.4c-2,0-3.7-1.7-3.7-3.7
			v-9C91.7,40.3,93.4,38.6,95.4,38.6z"/>
      <rect id="Rectangle_1595" x="91.7" y="71.5" class="st3" width="25.1" height="9.7"/>
      <path id="Path_4574" class="st6" d="M35,64.9c-6.9-3.7-12.3-9.6-15.3-16.7"/>
      <path id="Path_4575" class="st6" d="M70.9,7.8C76.6,12,80.9,17.9,83,24.6"/>
      <path id="Path_4576" class="st6" d="M35.7,58.9v6.8H29"/>
      <path id="Path_4577" class="st6" d="M70.5,14.5V7.7h6.8"/>
	</g>
    <g id="Group_3866" transform="translate(2048.579 742.414)">
		<g id="Group_3783">
			<path id="Path_4528" class="st10" d="M16.2,0C7.2,0,0,7.2,0,16.2c0,8.9,7.2,16.2,16.2,16.2c8.9,0,16.2-7.2,16.2-16.2c0,0,0,0,0,0
				C32.4,7.3,25.1,0,16.2,0"/>
		</g>
      <g id="Group_3784" transform="translate(7.768 8.083)">
			<path id="Path_4529" class="st11" d="M0,3.1l5.1,5.2L0,13.4l3.1,3.1l5.1-5.2l5.1,5.2l3.1-3.1l-5.1-5.2l5.1-5.2L13.4,0L8.2,5.2
				L3.1,0L0,3.1z"/>
		</g>
	</g>
</g>
</svg>
