<svg xmlns="http://www.w3.org/2000/svg" width="37.24" height="39.43" viewBox="0 0 37.24 39.43">
  <g id="Grupo_14295" data-name="Grupo 14295" transform="translate(2263 -9005)">
    <g id="Grupo_10382" data-name="Grupo 10382" transform="translate(-2263 9005)">
      <path id="Trazado_8854" data-name="Trazado 8854"
        d="M135.989,543.192a14.543,14.543,0,1,1-14.543-14.542,14.542,14.542,0,0,1,14.543,14.542"
        transform="translate(-98.749 -524.281)" fill="#e8e8e9"/>
      <path id="Trazado_8855" data-name="Trazado 8855"
        d="M121.62,529.881v-1.558a3.1,3.1,0,0,0-3.083-3.117H103.123a3.1,3.1,0,0,0-3.084,3.117v1.558Z"
        transform="translate(-99.435 -524.604)" fill="#ef3829"/>
      <path id="Trazado_8856" data-name="Trazado 8856"
        d="M122.275,530.536H99.487v-2.16a3.707,3.707,0,0,1,3.687-3.719h15.414a3.707,3.707,0,0,1,3.686,3.719Zm-21.581-1.205h20.375v-.955a2.5,2.5,0,0,0-2.48-2.514H103.174a2.5,2.5,0,0,0-2.481,2.514Z"
        transform="translate(-99.487 -524.656)"/>
      <path id="Trazado_8857" data-name="Trazado 8857"
        d="M100.039,554.407v3.117a3.453,3.453,0,0,0,3.083,3.116h15.415a3.454,3.454,0,0,0,3.084-3.116v-3.117Z"
        transform="translate(-99.435 -521.813)" fill="#ef3829"/>
      <path id="Trazado_8858" data-name="Trazado 8858"
        d="M118.588,561.294H103.174a4.071,4.071,0,0,1-3.687-3.719v-3.719h22.788v3.719a4.071,4.071,0,0,1-3.686,3.719m-17.895-6.233v2.514a2.874,2.874,0,0,0,2.481,2.514h15.414a2.874,2.874,0,0,0,2.48-2.514v-2.514Z"
        transform="translate(-99.487 -521.865)"/>
      <rect id="Rectángulo_7898" data-name="Rectángulo 7898" width="21.581" height="27.267"
        transform="translate(0.603 5.277)" fill="#fff"/>
      <path id="Trazado_8859" data-name="Trazado 8859"
        d="M122.275,557.4H99.488V528.929h22.787ZM100.693,556.2h20.375V530.135H100.693Z"
        transform="translate(-99.487 -524.255)"/>
      <rect id="Rectángulo_7899" data-name="Rectángulo 7899" width="3.854" height="1.207"
        transform="translate(9.479 35.107)"/>
      <path id="Trazado_8860" data-name="Trazado 8860"
        d="M130.336,542.745A9.336,9.336,0,1,1,121,533.41a9.337,9.337,0,0,1,9.336,9.335"
        transform="translate(-98.302 -523.811)" fill="#fff"/>
      <path id="Trazado_8861" data-name="Trazado 8861"
        d="M121.051,552.735a9.939,9.939,0,1,1,9.939-9.938,9.949,9.949,0,0,1-9.939,9.938m0-18.672a8.733,8.733,0,1,0,8.732,8.734,8.744,8.744,0,0,0-8.732-8.734"
        transform="translate(-98.354 -523.863)"/>
      <path id="Trazado_8862" data-name="Trazado 8862"
        d="M121.8,542.254l-2.345-.78a.832.832,0,0,1-.57-.791v-.4a.834.834,0,0,1,.834-.832h1.437a.834.834,0,0,1,.832.832h1.2a2.042,2.042,0,0,0-2.037-2.04h-.116v-1.55h-1.207v1.55h-.115a2.043,2.043,0,0,0-2.04,2.04v.4a2.036,2.036,0,0,0,1.395,1.934l2.345.782a.834.834,0,0,1,.57.79v.4a.833.833,0,0,1-.832.832h-1.437a.833.833,0,0,1-.834-.832h-1.207a2.041,2.041,0,0,0,2.04,2.039h.115v1.552h1.207V546.63h.116a2.04,2.04,0,0,0,2.037-2.039v-.4A2.04,2.04,0,0,0,121.8,542.254Z"
        transform="translate(-97.753 -523.502)"/>
    </g>
  </g>
</svg>
