<svg id="Capa_1" data-name="Capa 1" xmlns="http://www.w3.org/2000/svg" viewBox="0 0 36.22 20.01"><defs><style>.cls-1{fill:#fff;}.cls-2{fill:#1f97ae;}</style></defs><title>recarga-tarjeta</title><path class="cls-1" d="M8.78,16.74l2.51-2.52a3.76,3.76,0,0,0,3.35-.91l5.49-5.49-3.6-5.21H12.65a2.57,2.57,0,0,0-2.08.75L7.7,6.23,3,11Z"/><path d="M3.57,11l5.21,5.21,2.38-2.39.23.06a3.36,3.36,0,0,0,3-.81L19.6,7.78,16.32,3H12.65a2.15,2.15,0,0,0-1.79.63Zm5.21,6.37L2.41,11l7.87-7.88a3,3,0,0,1,2.39-.87h4.08l3.92,5.67L14.94,13.6a4.14,4.14,0,0,1-3.51,1.07Z"/><rect class="cls-2" x="3.71" y="9.29" width="3.66" height="10.37" transform="translate(-8.61 8.15) rotate(-45)"/><path d="M1.16,12.1l6.75,6.75,2-2L3.17,10.09ZM7.91,20,0,12.1,3.17,8.93l7.91,7.91Z"/><path class="cls-1" d="M34.17,13.36h-16a1.68,1.68,0,0,1-1.67-1.67V2.05A1.68,1.68,0,0,1,18.2.38h16a1.67,1.67,0,0,1,1.67,1.67v9.64a1.67,1.67,0,0,1-1.67,1.67"/><path d="M18.2.76a1.28,1.28,0,0,0-1.28,1.29v9.64A1.28,1.28,0,0,0,18.2,13h16a1.29,1.29,0,0,0,1.29-1.29V2.05A1.29,1.29,0,0,0,34.17.76Zm16,13h-16a2.05,2.05,0,0,1-2.05-2.05V2.05A2.05,2.05,0,0,1,18.2,0h16a2.05,2.05,0,0,1,2,2.05v9.64a2.05,2.05,0,0,1-2,2.05"/><rect x="16.53" y="2.97" width="19.31" height="2.33"/><rect x="30.16" y="7.72" width="3.78" height="3.78"/><path class="cls-1" d="M10.75,5.77h6a1.85,1.85,0,0,1,1.72,1.94A1.85,1.85,0,0,1,18,9a2.24,2.24,0,0,1-1.62.58H13.61A5.14,5.14,0,0,1,10,12.24Z"/><path d="M10.94,12.24l-.14-.81a4.31,4.31,0,0,0,3.11-2.38l.1-.26h3.3a1.4,1.4,0,0,0,1-.35,1,1,0,0,0,.29-.73,1,1,0,0,0-.9-1.12h-6V5.77h6a1.85,1.85,0,0,1,1.72,1.94A1.83,1.83,0,0,1,18.93,9a2.16,2.16,0,0,1-1.62.59H14.57a5.19,5.19,0,0,1-3.63,2.63"/></svg>