<?xml version="1.0" encoding="utf-8"?>
<!-- Generator: Adobe Illustrator 25.4.0, SVG Export Plug-In . SVG Version: 6.00 Build 0)  -->
<svg version="1.1" id="Layer_1" xmlns="http://www.w3.org/2000/svg" xmlns:xlink="http://www.w3.org/1999/xlink" x="0px" y="0px"
	 viewBox="0 0 85 19" style="enable-background:new 0 0 85 19;" xml:space="preserve">
<style type="text/css">
	.st0{fill:#386DB3;}
	.st1{fill:#FFFFFF;}
	.st2{fill:#FF0000;}
	
		.st3{clip-path:url(#SVGID_00000015350274850242651100000000309274260469295769_);fill:url(#SVGID_00000091727317893751841710000003309664787954951840_);}
	
		.st4{clip-path:url(#SVGID_00000015350274850242651100000000309274260469295769_);fill:url(#SVGID_00000051379239545053130490000016710189895227827328_);}
	.st5{fill:#25F4EE;}
	.st6{fill:#FE2C55;}
</style>
<g>
	<path class="st0" d="M30.1,1h-8.1c-2.1,0-3.8,1.7-3.8,3.8v8.5c0,2.1,1.7,3.8,3.8,3.8h2.7v-5.6h-2.1V9h2.1V7.2
		c0-2.1,1.2-3.2,3.2-3.2c0.9,0,1.9,0.2,1.9,0.2v2.1h-1.1c-1,0-1.4,0.6-1.4,1.3V9h2.3l-0.4,2.4h-1.9v5.6h2.9c2.1,0,3.8-1.7,3.8-3.8
		V4.8C33.8,2.7,32.1,1,30.1,1z"/>
	<path class="st1" d="M29.1,11.5L29.5,9h-2.3V7.5c0-0.7,0.3-1.3,1.4-1.3h1.1V4.1c0,0-1-0.2-1.9-0.2c-1.9,0-3.2,1.2-3.2,3.2V9h-2.1
		v2.4h2.1v5.6h2.6v-5.6H29.1z"/>
</g>
<g>
	<path d="M80,17.1h-8.2c-2.1,0-3.8-1.7-3.8-3.8V4.8c0-2.1,1.7-3.8,3.8-3.8H80c2.1,0,3.8,1.7,3.8,3.8v8.5
		C83.8,15.4,82.1,17.1,80,17.1z"/>
	<g>
		<path class="st1" d="M77.2,8L81,3.6h-0.9l-3.3,3.9l-2.7-3.9h-3.1l4,5.9l-4,4.7H72l3.5-4.1l2.8,4.1h3.1L77.2,8L77.2,8z M76,9.5
			l-0.4-0.6l-3.2-4.6h1.4L76.3,8l0.4,0.6l3.4,4.9h-1.4L76,9.5L76,9.5z"/>
	</g>
</g>
<g>
	<path class="st2" d="M63.4,17h-8.1c-2.1,0-3.8-1.7-3.8-3.8V4.7c0-2.1,1.7-3.8,3.8-3.8h8.1c2.1,0,3.8,1.7,3.8,3.8v8.5
		C67.1,15.3,65.4,17,63.4,17z"/>
	<path class="st1" d="M64.7,6.2c-0.1-0.5-0.5-0.9-1-1C62.8,5,59.3,5,59.3,5s-3.5,0-4.4,0.2c-0.5,0.1-0.9,0.5-1,1
		c-0.2,0.9-0.2,2.7-0.2,2.7s0,1.8,0.2,2.7c0.1,0.5,0.5,0.9,1,1c0.9,0.2,4.4,0.2,4.4,0.2s3.5,0,4.4-0.2c0.5-0.1,0.9-0.5,1-1
		c0.2-0.9,0.2-2.7,0.2-2.7S64.9,7.1,64.7,6.2z"/>
	<polygon class="st2" points="58.2,10.6 61.1,8.9 58.2,7.2 	"/>
</g>
<g>
	<path d="M46.7,17.1h-8.1c-2.1,0-3.8-1.7-3.8-3.8V4.8c0-2.1,1.7-3.8,3.8-3.8h8.1c2.1,0,3.8,1.7,3.8,3.8v8.5
		C50.5,15.4,48.8,17.1,46.7,17.1z"/>
	<g>
		<defs>
			<path id="SVGID_1_" d="M46.7,17.1h-8.1c-2.1,0-3.8-1.7-3.8-3.8V4.8c0-2.1,1.7-3.8,3.8-3.8h8.1c2.1,0,3.8,1.7,3.8,3.8v8.5
				C50.5,15.4,48.8,17.1,46.7,17.1z"/>
		</defs>
		<clipPath id="SVGID_00000012463442100295213660000006778539263402431676_">
			<use xlink:href="#SVGID_1_"  style="overflow:visible;"/>
		</clipPath>
		
			<radialGradient id="SVGID_00000174601287933532129540000018152528225121661836_" cx="1921.3114" cy="-1236.9368" r="9.9544" gradientTransform="matrix(2.0833 0 0 -2.0833 -3962.1038 -2559.4387)" gradientUnits="userSpaceOnUse">
			<stop  offset="0" style="stop-color:#FFDD55"/>
			<stop  offset="0.328" style="stop-color:#FF543F"/>
			<stop  offset="0.348" style="stop-color:#FC5245"/>
			<stop  offset="0.504" style="stop-color:#E64771"/>
			<stop  offset="0.643" style="stop-color:#D53E91"/>
			<stop  offset="0.761" style="stop-color:#CC39A4"/>
			<stop  offset="0.841" style="stop-color:#C837AB"/>
		</radialGradient>
		
			<path style="clip-path:url(#SVGID_00000012463442100295213660000006778539263402431676_);fill:url(#SVGID_00000174601287933532129540000018152528225121661836_);" d="
			M47.4,17.5l-9.2,0c-2,0-3.7-1.7-3.7-3.7l0-9.2c0-2,1.7-3.7,3.7-3.7l9.2,0c2,0,3.7,1.7,3.7,3.7l0,9.2
			C51.1,15.8,49.4,17.5,47.4,17.5z"/>
		
			<radialGradient id="SVGID_00000129181459094802903080000014122374548545430684_" cx="5179.5322" cy="-1813.175" r="8.4988" gradientTransform="matrix(1.3043 0.7131 0.4846 -1.9968 -5826.6392 -7315.4028)" gradientUnits="userSpaceOnUse">
			<stop  offset="0" style="stop-color:#4C1EC9"/>
			<stop  offset="0.999" style="stop-color:#4C1EC9;stop-opacity:0"/>
		</radialGradient>
		
			<path style="clip-path:url(#SVGID_00000012463442100295213660000006778539263402431676_);fill:url(#SVGID_00000129181459094802903080000014122374548545430684_);" d="
			M37.7,10.6l0-9.2c0-2,1.7-3.7,3.7-3.7l9.2,0c2,0,3.7,1.7,3.7,3.7l0,9.2c0,2-1.7,3.7-3.7,3.7l-9.2,0C39.4,14.2,37.7,12.6,37.7,10.6
			z"/>
	</g>
	<g>
		<path class="st1" d="M42.8,4.1c1.6,0,1.8,0,2.5,0c0.6,0,0.9,0.1,1.1,0.2c0.3,0.1,0.5,0.2,0.7,0.5c0.2,0.2,0.3,0.4,0.5,0.7
			c0.1,0.2,0.2,0.5,0.2,1.1c0,0.6,0,0.8,0,2.5s0,1.8,0,2.5c0,0.6-0.1,0.9-0.2,1.1c-0.1,0.3-0.2,0.5-0.5,0.7
			c-0.2,0.2-0.4,0.3-0.7,0.5c-0.2,0.1-0.5,0.2-1.1,0.2c-0.6,0-0.8,0-2.5,0s-1.8,0-2.5,0c-0.6,0-0.9-0.1-1.1-0.2
			c-0.3-0.1-0.5-0.2-0.7-0.5c-0.2-0.2-0.3-0.4-0.5-0.7c-0.1-0.2-0.2-0.5-0.2-1.1c0-0.6,0-0.8,0-2.5s0-1.8,0-2.5
			c0-0.6,0.1-0.9,0.2-1.1c0.1-0.3,0.2-0.5,0.5-0.7c0.2-0.2,0.4-0.3,0.7-0.5c0.2-0.1,0.5-0.2,1.1-0.2C41,4.1,41.2,4.1,42.8,4.1
			 M42.8,3c-1.7,0-1.9,0-2.5,0c-0.7,0-1.1,0.1-1.5,0.3C38.4,3.4,38,3.6,37.7,4c-0.3,0.3-0.5,0.7-0.7,1.1c-0.2,0.4-0.3,0.8-0.3,1.5
			c0,0.7,0,0.9,0,2.5c0,1.7,0,1.9,0,2.5c0,0.7,0.1,1.1,0.3,1.5c0.2,0.4,0.4,0.7,0.7,1.1c0.3,0.3,0.7,0.5,1.1,0.7
			c0.4,0.2,0.8,0.3,1.5,0.3c0.7,0,0.9,0,2.5,0s1.9,0,2.5,0c0.7,0,1.1-0.1,1.5-0.3c0.4-0.2,0.7-0.4,1.1-0.7c0.3-0.3,0.5-0.7,0.7-1.1
			c0.2-0.4,0.3-0.8,0.3-1.5c0-0.7,0-0.9,0-2.5s0-1.9,0-2.5c0-0.7-0.1-1.1-0.3-1.5c-0.2-0.4-0.4-0.7-0.7-1.1
			c-0.3-0.3-0.7-0.5-1.1-0.7C46.4,3.1,46,3,45.3,3C44.7,3,44.4,3,42.8,3L42.8,3z"/>
		<path class="st1" d="M42.8,5.9c-1.7,0-3.1,1.4-3.1,3.1c0,1.7,1.4,3.1,3.1,3.1s3.1-1.4,3.1-3.1C45.9,7.3,44.5,5.9,42.8,5.9z
			 M42.8,11.1c-1.1,0-2-0.9-2-2c0-1.1,0.9-2,2-2c1.1,0,2,0.9,2,2C44.8,10.2,43.9,11.1,42.8,11.1z"/>
		<circle class="st1" cx="46" cy="5.8" r="0.7"/>
	</g>
</g>
<g>
	<path d="M13.4,17.1H5.3c-2.1,0-3.8-1.7-3.8-3.8V4.8C1.5,2.7,3.2,1,5.3,1h8.1c2.1,0,3.8,1.7,3.8,3.8v8.5
		C17.2,15.4,15.5,17.1,13.4,17.1z"/>
	<g>
		<g>
			<g>
				<path class="st5" d="M8.2,7.7V7.3c-0.2,0-0.3,0-0.5,0c-1.9,0-3.4,1.5-3.4,3.4c0,1.2,0.6,2.2,1.5,2.8c-0.6-0.6-0.9-1.4-0.9-2.3
					C4.8,9.3,6.3,7.7,8.2,7.7z"/>
				<path class="st5" d="M8.3,12.7c0.8,0,1.5-0.7,1.6-1.5l0-7.5l1.4,0l0,0c0-0.2,0-0.3,0-0.5H9.3l0,7.5c0,0.8-0.7,1.5-1.6,1.5
					c-0.3,0-0.5-0.1-0.7-0.2C7.3,12.4,7.7,12.7,8.3,12.7z"/>
				<path class="st5" d="M13.7,6.3V5.8c-0.5,0-1-0.2-1.4-0.4C12.7,5.8,13.2,6.1,13.7,6.3z"/>
				<path class="st6" d="M12.3,5.4c-0.4-0.5-0.6-1.1-0.6-1.7h-0.5C11.3,4.4,11.7,5,12.3,5.4z"/>
				<path class="st6" d="M7.7,9.1c-0.9,0-1.6,0.7-1.6,1.6c0,0.6,0.4,1.1,0.9,1.4c-0.2-0.3-0.3-0.6-0.3-0.9c0-0.9,0.7-1.6,1.6-1.6
					c0.2,0,0.3,0,0.5,0.1V7.7c-0.2,0-0.3,0-0.5,0c0,0-0.1,0-0.1,0l0,0l0,1.4C8,9.1,7.9,9.1,7.7,9.1z"/>
				<path class="st6" d="M13.7,6.2L13.7,6.2l0,1.4c-1,0-1.9-0.3-2.6-0.8l0,3.8c0,1.9-1.5,3.4-3.4,3.4c-0.7,0-1.4-0.2-2-0.6
					c0.6,0.7,1.5,1.1,2.5,1.1c1.9,0,3.4-1.5,3.4-3.4V7.3c0.7,0.5,1.6,0.8,2.6,0.8V6.3C14.1,6.3,13.9,6.3,13.7,6.2z"/>
				<path class="st1" d="M11.1,10.7V6.9c0.7,0.5,1.6,0.8,2.6,0.8V6.2c-0.6-0.1-1.1-0.4-1.4-0.8c-0.6-0.4-1-1-1.1-1.7H9.8l0,7.5
					c0,0.8-0.7,1.5-1.6,1.5c-0.5,0-1-0.3-1.3-0.7c-0.5-0.3-0.8-0.8-0.8-1.4c0-0.9,0.7-1.6,1.6-1.6c0.2,0,0.3,0,0.5,0.1V7.7
					c-1.9,0-3.4,1.6-3.4,3.4c0,0.9,0.4,1.7,0.9,2.3c0.6,0.4,1.2,0.6,2,0.6C9.6,14.1,11.1,12.6,11.1,10.7z"/>
			</g>
		</g>
	</g>
</g>
<g>
</g>
<g>
</g>
<g>
</g>
<g>
</g>
<g>
</g>
<g>
</g>
<g>
</g>
<g>
</g>
<g>
</g>
<g>
</g>
<g>
</g>
<g>
</g>
<g>
</g>
<g>
</g>
<g>
</g>
</svg>
