<svg width="21" height="19" viewBox="0 0 21 19" fill="none" xmlns="http://www.w3.org/2000/svg">
<path d="M10.5062 17.7325C10.5062 17.7325 9.66341 17.7325 9.23231 17.7325C4.68573 17.7325 1 14.0468 1 9.50018C1 4.9536 4.68573 1.26786 9.23231 1.26786C9.23231 1.26786 11.3365 1.26786 11.7676 1.26786C16.3142 1.26786 19.9999 4.9536 19.9999 9.50018C19.9999 14.0468 16.3142 17.7325 11.7676 17.7325C11.3365 17.7325 10.5062 17.7325 10.5062 17.7325Z" fill="white" stroke="#141414" stroke-width="0.8" stroke-linecap="round" stroke-linejoin="round"/>
<path d="M9.23305 17.7325C13.7796 17.7325 17.4654 14.0467 17.4654 9.50014C17.4654 4.95356 13.7796 1.26782 9.23305 1.26782C4.68647 1.26782 1.00073 4.95356 1.00073 9.50014C1.00073 14.0467 4.68647 17.7325 9.23305 17.7325Z" fill="white" stroke="#141414" stroke-width="0.8" stroke-linecap="round" stroke-linejoin="round"/>
<path d="M7.07942 4.97192H8.06437V7.812H7.07942V4.97192Z" fill="#141414"/>
<path d="M9.225 8.16761L11.8764 5.51865L12.5738 6.21407L9.92245 8.86303L9.225 8.16761Z" fill="#141414"/>
<path fill-rule="evenodd" clip-rule="evenodd" d="M7.43612 8.69851C6.8132 8.69851 6.27548 8.92147 5.82825 9.3727C5.37571 9.82392 5.1521 10.376 5.1521 11.0077C5.1521 11.6394 5.37571 12.1915 5.82825 12.6321C6.27015 13.0887 6.8132 13.3169 7.43612 13.3169C8.05903 13.3169 8.60741 13.0834 9.06528 12.6321C9.50717 12.1862 9.73078 11.6394 9.73078 11.0077C9.73078 10.376 9.50717 9.82392 9.06528 9.3727C8.60741 8.91616 8.05903 8.69851 7.43612 8.69851ZM8.29329 11.8624C8.05903 12.1066 7.77686 12.2181 7.43612 12.2181C7.10603 12.2181 6.82385 12.1013 6.58959 11.8624C6.35534 11.6182 6.22756 11.3369 6.22756 11.0077C6.22756 10.6627 6.35534 10.376 6.58959 10.1424C6.82385 9.89824 7.10603 9.78146 7.43612 9.79207C7.77153 9.78146 8.05903 9.89824 8.30394 10.1424C8.52755 10.376 8.64468 10.6627 8.65532 11.0077C8.63935 11.3369 8.52755 11.6182 8.29329 11.8624Z" fill="#141414"/>
<path d="M13.3139 9.96204V10.9441H10.407V9.96204H13.3139Z" fill="#141414"/>
</svg>
