<?xml version="1.0" encoding="utf-8"?>
<!-- Generator: Adobe Illustrator 24.3.0, SVG Export Plug-In . SVG Version: 6.00 Build 0)  -->
<svg version="1.1" id="Layer_1" xmlns="http://www.w3.org/2000/svg" xmlns:xlink="http://www.w3.org/1999/xlink" x="0px" y="0px"
	 viewBox="0 0 19 13" style="enable-background:new 0 0 19 13;" xml:space="preserve">
<style type="text/css">
	.st0{fill:#040505;}
</style>
<g id="Group_19912" transform="translate(-133 -4871)">
	<path id="Path_12179" class="st0" d="M150.1,4884h-15.1c-1.1,0-1.9-0.9-1.9-1.9v-9.1c0-1.1,0.9-1.9,1.9-1.9h15.1
		c1.1,0,1.9,0.9,1.9,1.9v9.1C152,4883.1,151.1,4884,150.1,4884z M134.9,4871.7c-0.7,0-1.2,0.5-1.2,1.2v9.1c0,0.7,0.5,1.2,1.2,1.2
		h15.1c0.7,0,1.2-0.5,1.2-1.2v-9.1c0-0.7-0.5-1.2-1.2-1.2H134.9z"/>
	<rect id="Rectangle_10837" x="133.4" y="4873.8" class="st0" width="18.3" height="2.2"/>
	<rect id="Rectangle_10838" x="146.4" y="4878.4" class="st0" width="3.5" height="3.5"/>
</g>
</svg>
