<svg width="47" height="30" viewBox="0 0 47 30" fill="none" xmlns="http://www.w3.org/2000/svg">
<path d="M34.7676 4.46636L34.6586 4.37188C34.2961 4.08186 33.9175 3.81251 33.5247 3.5651C30.7597 1.79699 27.4339 1.12561 24.1996 1.68262C22.3878 1.97815 20.6561 2.64292 19.1119 3.63567C17.5678 4.62842 16.2442 5.92796 15.2232 7.45362C13.7083 9.56481 12.8122 12.0567 12.6357 14.6492C12.8122 17.2417 13.7083 19.7336 15.2232 21.8448C16.2433 23.3706 17.5667 24.6698 19.1111 25.6615C20.6555 26.6532 22.3877 27.3159 24.1996 27.6085C27.4331 28.172 30.7604 27.5029 33.5247 25.7333C33.9177 25.4835 34.2962 25.2117 34.6586 24.9193L34.7676 24.8248C34.7888 24.7958 34.8059 24.764 34.8185 24.7303C33.5247 24.5021 32.2918 24.0101 31.1964 23.2849C30.101 22.5596 29.1667 21.6167 28.4515 20.5147C27.2594 18.8129 26.6361 16.7776 26.6708 14.7001V14.7001V14.6056C26.6356 12.528 27.2589 10.4926 28.4515 8.79098C29.159 7.69212 30.0847 6.75029 31.1712 6.02389C32.2577 5.29749 33.4818 4.80199 34.7676 4.56812C34.7702 4.53425 34.7702 4.50023 34.7676 4.46636V4.46636Z" fill="white"/>
<path d="M31.3589 7.75888C32.8083 6.52043 34.6817 5.8925 36.5848 6.00723C36.7447 6.0335 36.9088 6.00557 37.051 5.92787C37.1932 5.85017 37.3054 5.72717 37.3697 5.5784C37.4381 5.43117 37.4552 5.26531 37.4183 5.10724C37.3814 4.94917 37.2927 4.80799 37.1662 4.70621C36.9918 4.53177 36.8028 4.37187 36.6211 4.2047C36.1123 3.7468 35.589 3.29617 35.0366 2.88188C30.1378 -0.432451 24.9483 -0.970302 19.6279 1.69715C17.2164 2.93887 15.1665 4.78231 13.6766 7.04892C12.1868 9.31552 11.3075 11.9285 11.124 14.6347V14.6347C11.124 14.6347 11.124 14.671 11.124 14.6855C11.124 14.7001 11.124 14.6855 11.124 14.7291C11.3063 17.4366 12.185 20.0511 13.6749 22.319C15.1648 24.587 17.2154 26.4316 19.6279 27.6739C24.9483 30.3414 30.1378 29.8035 35.0366 26.4892C35.589 26.0749 36.1123 25.6243 36.6211 25.1591C36.8028 24.9992 36.9918 24.832 37.1662 24.6649C37.2927 24.5631 37.3814 24.4219 37.4183 24.2638C37.4552 24.1058 37.4381 23.9399 37.3697 23.7927C37.3066 23.6426 37.195 23.518 37.0526 23.4389C36.9103 23.3598 36.7455 23.3308 36.5848 23.3566C34.6822 23.4772 32.8075 22.8514 31.3589 21.6122C30.326 20.7827 29.4983 19.7262 28.9399 18.525C28.3814 17.3237 28.1074 16.0099 28.139 14.6855C28.1063 13.361 28.3798 12.0468 28.9383 10.8454C29.4968 9.64394 30.3252 8.58767 31.3589 7.75888V7.75888ZM28.4516 8.82005C27.259 10.5217 26.6357 12.5571 26.6708 14.6347V14.6347V14.7291C26.6362 16.8067 27.2595 18.8419 28.4516 20.5438C29.1668 21.6457 30.1011 22.5887 31.1965 23.3139C32.2919 24.0392 33.5248 24.5312 34.8186 24.7594C34.806 24.793 34.7889 24.8248 34.7677 24.8538L34.6587 24.9483C34.2963 25.2407 33.9177 25.5125 33.5248 25.7624C30.7604 27.532 27.4332 28.201 24.1996 27.6376C22.3878 27.345 20.6556 26.6822 19.1112 25.6906C17.5668 24.6989 16.2433 23.3996 15.2233 21.8738C13.7084 19.7627 12.8123 17.2708 12.6358 14.6783C12.8123 12.0858 13.7084 9.59388 15.2233 7.48269C16.2442 5.95703 17.5679 4.65749 19.112 3.66474C20.6561 2.67199 22.3878 2.00722 24.1996 1.71169C27.434 1.15468 30.7598 1.82606 33.5248 3.59417C33.9176 3.84158 34.2962 4.11093 34.6587 4.40094L34.7677 4.49543C34.7875 4.52783 34.8046 4.56187 34.8186 4.59719C33.5228 4.81743 32.2864 5.30297 31.187 6.02338C30.0877 6.74379 29.149 7.68354 28.4298 8.78371L28.4516 8.82005Z" fill="black"/>
<path d="M23.5753 14.9059C23.5751 17.2372 22.8837 19.516 21.5885 21.4543C20.2933 23.3926 18.4524 24.9033 16.2986 25.7955C14.1448 26.6876 11.7749 26.921 9.48839 26.4663C7.20193 26.0116 5.10164 24.8891 3.45309 23.2408C1.80455 21.5924 0.681769 19.4923 0.226735 17.2059C-0.228299 14.9195 0.00484031 12.5495 0.896676 10.3956C1.78851 8.24173 3.29899 6.40061 5.23713 5.10511C7.17527 3.80962 9.45403 3.11792 11.7853 3.11745C13.3335 3.11724 14.8666 3.422 16.297 4.01433C17.7274 4.60666 19.0272 5.47496 20.122 6.56964C21.2168 7.66432 22.0853 8.96394 22.6778 10.3943C23.2703 11.8246 23.5753 13.3577 23.5753 14.9059Z" fill="#E3E3E3"/>
<path d="M17.4396 12.2093L6.30957 12.3095L6.3915 21.4132L17.5215 21.313L17.4396 12.2093Z" fill="white"/>
<path d="M17.5182 12.2048L6.2417 12.3063L6.3214 21.1623L17.5979 21.0608L17.5182 12.2048Z" stroke="black" stroke-width="0.59681" stroke-miterlimit="10"/>
<path d="M18.2581 11.7359L5.47998 11.8509L5.50865 15.0364L18.2868 14.9214L18.2581 11.7359Z" fill="white"/>
<path d="M18.4546 11.7301L5.29834 11.8485L5.32771 15.1113L18.484 14.9929L18.4546 11.7301Z" stroke="black" stroke-width="0.59681" stroke-miterlimit="10"/>
<path d="M13.3907 12.193L10.3564 12.2203L10.4384 21.324L13.4727 21.2967L13.3907 12.193Z" fill="#1F97AE"/>
<path d="M13.2881 12.0102L10.4688 12.0356L10.5506 21.1249L13.3699 21.0996L13.2881 12.0102Z" stroke="black" stroke-width="0.426293" stroke-miterlimit="10"/>
<path d="M11.5225 11.827C10.5887 11.8632 9.6679 11.5992 8.89509 11.0738C8.73437 10.9478 8.60158 10.7899 8.50516 10.6099C8.40874 10.4299 8.35078 10.2319 8.33498 10.0283C8.31918 9.82473 8.34591 9.62008 8.41341 9.42738C8.48091 9.23468 8.58773 9.05813 8.7271 8.90891C8.85627 8.75495 9.0148 8.62828 9.19347 8.53628C9.37214 8.44428 9.56733 8.38879 9.76768 8.37307C9.97521 8.36258 10.1828 8.39422 10.3778 8.46606C10.5727 8.5379 10.7512 8.64844 10.9023 8.79107C11.5299 9.51069 11.9132 10.4108 11.9971 11.362L12.04 11.8103L11.5862 11.8254H11.5225V11.827ZM9.81069 8.95906H9.77166C9.654 8.97183 9.54003 9.00766 9.43621 9.06449C9.33238 9.12132 9.24077 9.19806 9.1666 9.29029C9.07772 9.37912 9.00946 9.48642 8.96668 9.60456C8.92389 9.72271 8.90761 9.8488 8.919 9.97394C8.9304 10.0991 8.9692 10.2202 9.03262 10.3286C9.09604 10.4371 9.18254 10.5303 9.286 10.6016C9.92254 11.0382 10.6713 11.2823 11.4429 11.3047C11.3188 10.5353 10.978 9.81717 10.4604 9.23455C10.286 9.06448 10.0549 8.96495 9.81151 8.9551" fill="black"/>
<path d="M12.0258 11.8126H11.9621L11.5083 11.8222L11.5266 11.3723C11.5569 10.4182 11.8892 9.4982 12.4757 8.74492C12.6189 8.5947 12.7909 8.47496 12.9815 8.39287C13.1721 8.31077 13.3773 8.26803 13.5848 8.2672C13.7858 8.27207 13.9838 8.31681 14.1674 8.39882C14.3509 8.48082 14.5164 8.59846 14.6541 8.74492C14.8016 8.88607 14.918 9.05631 14.9962 9.24487C15.0744 9.43343 15.1125 9.63619 15.1081 9.84027C15.1038 10.0443 15.0571 10.2453 14.971 10.4304C14.8849 10.6154 14.7612 10.7806 14.6079 10.9153C13.8658 11.4829 12.9615 11.7979 12.0274 11.8142L12.0258 11.8126ZM13.5761 8.85637C13.3332 8.88081 13.108 8.99426 12.9439 9.17484C12.4598 9.78443 12.1596 10.5194 12.0784 11.2935C12.8474 11.2278 13.5813 10.942 14.1923 10.4703C14.2915 10.3932 14.3724 10.2954 14.4296 10.1835C14.4867 10.0717 14.5186 9.94872 14.5229 9.82323C14.5273 9.69774 14.504 9.57284 14.4547 9.45736C14.4054 9.34187 14.3313 9.23862 14.2377 9.15494C14.0773 8.97762 13.8531 8.87113 13.6142 8.85878H13.5752" fill="black"/>
<path d="M13.574 8.86035C13.3313 8.88462 13.1063 8.9981 12.9426 9.17882C12.4582 9.78852 12.158 10.5238 12.0771 11.2983C12.8462 11.2324 13.58 10.9466 14.191 10.475C14.2902 10.398 14.3712 10.3001 14.4284 10.1883C14.4855 10.0765 14.5173 9.95351 14.5217 9.82802C14.526 9.70252 14.5027 9.5776 14.4534 9.46211C14.4041 9.34663 14.33 9.24341 14.2364 9.15973C14.0763 8.98245 13.8524 8.87593 13.6138 8.86353H13.5748" fill="#E9EAEB"/>
<path d="M9.81133 8.9655H9.77153C9.53396 8.99155 9.31638 9.11063 9.16641 9.2967C9.07751 9.3854 9.00923 9.49258 8.96639 9.61063C8.92355 9.72868 8.9072 9.85472 8.91852 9.97979C8.92985 10.1049 8.96855 10.2259 9.0319 10.3343C9.09524 10.4428 9.18165 10.536 9.28503 10.6073C9.92144 11.0442 10.6703 11.2886 11.4419 11.3111C11.3173 10.5439 10.9768 9.82809 10.4602 9.24736C10.2861 9.0774 10.0552 8.97785 9.8121 8.96788" fill="#E9EAEB"/>
<path d="M36.7689 13.4698H33.2285V14.6138H36.7689V13.4698Z" fill="#AEB0B4"/>
<path d="M35.5703 12.2514H34.4263V15.8391H35.5703V12.2514Z" fill="#AEB0B4"/>
<path d="M43.5028 19.369H39.9624V20.513H43.5028V19.369Z" fill="#AEB0B4"/>
<path d="M42.3051 18.1437H41.1611V21.7315H42.3051V18.1437Z" fill="#AEB0B4"/>
<path d="M46.0291 6.7356H42.4888V7.87961H46.0291V6.7356Z" fill="#AEB0B4"/>
<path d="M44.831 5.51711H43.687V9.10484H44.831V5.51711Z" fill="#AEB0B4"/>
</svg>
