<?xml version="1.0" encoding="utf-8"?>
<!-- Generator: Adobe Illustrator 24.1.0, SVG Export Plug-In . SVG Version: 6.00 Build 0)  -->
<svg version="1.1" id="Layer_1" xmlns="http://www.w3.org/2000/svg" xmlns:xlink="http://www.w3.org/1999/xlink" x="0px"
  y="0px"
  viewBox="0 0 77 48" style="enable-background:new 0 0 77 48;" xml:space="preserve">
<style type="text/css">
	.st0{fill:#FFFFFF;}
	.st1{opacity:2.000000e-02;}
	.st2{fill:#E6E6E6;}
	.st3{fill:none;stroke:#E6E6E6;stroke-linecap:round;stroke-linejoin:round;}
	.st4{fill:#A3A3A3;stroke:#E6E6E6;stroke-linecap:round;}
	.st5{fill:#1E97AE;}
</style>
  <g id="Group_14146" transform="translate(4896.142 -6647.5)">
	<g id="Group_14147" transform="translate(-4891.642 6651)">
		<g transform="matrix(1, 0, 0, 1, -4.5, -3.5)">
			<path id="Rectangle_3342-2_1_" class="st0" d="M6.3,0h64.4c3.3,0,6,2.7,6,6v35.9c0,3.3-2.7,6-6,6H6.3c-3.3,0-6-2.7-6-6V6
				C0.3,2.7,3,0,6.3,0z"/>
		</g>
    <path id="Path_5269_1_" class="st1"
      d="M39.2-3.5h28.3C70-3.3,72-1.3,72.2,1.2v38.6c0,1.7-2,4.7-4.7,4.7H27.9L39.2-3.5z"/>
	</g>
    <g id="Group_14146-2" transform="translate(-4891.654 6664.312)">
		<rect id="Rectangle_8213" x="-4.2" y="-3.5" class="st2" width="76.4" height="5.7"/>
      <g id="Group_12807" transform="translate(9.109 13.599)">
			<line id="Line_1206" class="st3" x1="-4.2" y1="-3.5" x2="47.4" y2="-3.5"/>
        <path id="Path_9808" class="st4" d="M-4.2-0.5h51.6"/>
        <line id="Line_1208" class="st3" x1="-4.2" y1="2.6" x2="47.4" y2="2.6"/>
        <line id="Line_1209" class="st3" x1="-4.2" y1="5.6" x2="47.4" y2="5.6"/>
		</g>
      <g id="Group_12806" transform="translate(56.654 11.054)">
			<ellipse id="Ellipse_623_1_" class="st5" cx="2.7" cy="3.4" rx="6.9" ry="6.9"/>
        <g id="Group_12808" transform="translate(3.001 5.887)">
				<ellipse id="Ellipse_632" class="st0" cx="-3.3" cy="-2.6" rx="0.9" ry="0.9"/>
          <ellipse id="Ellipse_633" class="st0" cx="-0.5" cy="-2.6" rx="0.9" ry="0.9"/>
          <ellipse id="Ellipse_634" class="st0" cx="2.3" cy="-2.6" rx="0.9" ry="0.9"/>
			</g>
		</g>
	</g>
</g>
</svg>
